<?xml version="1.0" standalone="no"?>
<!DOCTYPE svg PUBLIC "-//W3C//DTD SVG 1.1//EN" "http://www.w3.org/Graphics/SVG/1.1/DTD/svg11.dtd" >
<!--
2013-9-30: Created.
-->
<svg>
<metadata>
Created by iconfont
</metadata>
<defs>

<font id="y-iconfont" horiz-adv-x="1024" >
  <font-face
    font-family="y-iconfont"
    font-weight="500"
    font-stretch="normal"
    units-per-em="1024"
    ascent="896"
    descent="-128"
  />
    <missing-glyph />
    
    <glyph glyph-name="quanping" unicode="&#58924;" d="M270.08 831.936l-179.2 0C76.032 831.936 64 819.904 64 805.056l0-178.688c0-0.128 0-0.256 0-0.384C64 611.072 76.032 599.04 90.88 599.04s27.008 12.032 27.008 26.944c0 1.536-0.256 3.136-0.512 4.608L117.376 773.824c0 2.496 1.984 4.48 4.416 4.48l145.408 0C268.16 778.24 269.12 778.048 270.08 778.048c14.848 0 26.944 12.032 26.944 26.944S284.928 831.936 270.08 831.936zM847.552 65.216c0-9.856-8.128-17.856-17.92-17.856L190.528 47.36c-9.856 0-17.856 8-17.856 17.856L172.672 704.256c0 9.92 8 17.92 17.856 17.92l639.104 0c9.792 0 17.92-8 17.92-17.92L847.552 65.216zM753.792 831.936l179.2 0c14.848 0 26.88-12.032 26.88-26.88l0-178.688C959.872 626.24 960 626.112 960 625.984c0-14.912-12.096-26.944-27.008-26.944s-26.944 12.032-26.944 26.944c0 1.536 0.256 3.136 0.448 4.608L906.496 773.824c0 2.496-1.92 4.48-4.48 4.48l-145.344 0c-1.024-0.064-1.856-0.256-2.88-0.256-14.848 0-26.88 12.032-26.88 26.944S738.944 831.936 753.792 831.936zM270.08-63.936l-179.2 0C76.032-63.936 64-51.968 64-37.12l0 178.752c0 0.128 0 0.256 0 0.384 0 14.912 12.032 27.008 26.88 27.008s27.008-12.032 27.008-27.008c0-1.536-0.256-3.136-0.512-4.608l0-143.168c0-2.496 1.984-4.48 4.416-4.48l145.408 0c0.96 0.064 1.856 0.256 2.816 0.256 14.848 0 26.944-12.032 26.944-26.944S284.928-63.936 270.08-63.936zM753.792-63.936l179.2 0c14.848 0 26.88 12.032 26.88 26.816l0 178.752c0 0.128 0.128 0.256 0.128 0.384 0 14.912-12.096 27.008-27.008 27.008s-26.944-12.032-26.944-27.008c0-1.536 0.256-3.136 0.448-4.608l0-143.168c0-2.496-1.92-4.48-4.48-4.48l-145.344 0c-1.024 0.064-1.856 0.256-2.88 0.256-14.848 0-26.88-12.032-26.88-26.944S738.944-63.936 753.792-63.936z"  horiz-adv-x="1024" />

    
    <glyph glyph-name="xiugai" unicode="&#58949;" d="M473.4125 468.9375L356.1875 586.1625 383.91875 613.8375 228.33125 769.48125 118.25 659.34375 273.8375 503.75625 301.5125 531.4875 418.68125 414.2625ZM858.89375 83.45624999999995c15.8625 24.4125-0.73125 75.09375-0.73125 75.09375l-179.49375 179.49375c-102.7125-8.1-163.35-138.825-163.35-138.825s161.49375-168.075 188.94375-188.94375 73.85625-7.59375 73.85625-7.59375S843.03125 59.10000000000002 858.89375 83.45624999999995zM720.35 46.612499999999955l-146.475 146.475c-8.4375 8.325-8.4375 21.99375-0.05625 30.375 8.325 8.325 22.05 8.325 30.375 0l146.475-146.475c8.325-8.325 8.325-22.05 0-30.375C742.34375 38.231250000000045 728.73125 38.231250000000045 720.35 46.612499999999955zM786.78125 113.04375000000005l-146.475 146.475c-8.325 8.38125-8.325 22.10625 0 30.375 8.38125 8.4375 21.99375 8.4375 30.375 0l146.475-146.475c8.325-8.325 8.325-21.99375 0-30.43125C808.71875 104.60625000000005 795.1625 104.66250000000002 786.78125 113.04375000000005zM401.525 170.19375000000002c0.3375 2.98125 1.125 5.85 2.53125 7.7625 4.05 5.34375 141.01875 169.14375 238.78125 193.33125 69.525-22.275 148.78125-5.90625 204.01875 49.275 45.95625 45.95625 64.96875 108.61875 57.2625 168.4125l-139.3875-145.51875-139.95 23.45625L580.68125 593.30625l154.18125 168.69375c-61.14375 9.3375-125.71875-9.5625-172.8-56.64375-58.6125-58.55625-73.51875-144.16875-44.94375-216.5625C510.65 457.63125 490.85 413.1375 438.65 357.45000000000005c-108-115.14375-108-115.14375-108-115.14375s-1.125-1.4625-3.54375-2.925c-42.80625 14.34375-91.9125 4.6125-126-29.41875-47.98125-47.98125-47.98125-125.8875 0-173.86875s125.775-47.98125 173.8125 0.05625C411.2 72.43124999999998 419.975 125.64374999999995 401.525 170.19375000000002zM239.24375 70.01250000000005c-27.73125 27.675-27.73125 72.675 0 100.40625 27.73125 27.675 72.675 27.675 100.35-0.05625s27.73125-72.675 0-100.35C311.91875 42.28125 266.975 42.28125 239.24375 70.01250000000005z"  horiz-adv-x="1024" />

    
    <glyph glyph-name="17" unicode="&#59072;" d="M887.466667-25.6 147.911111-25.6l0 68.266667 739.555556 0L887.466667-25.6zM517.688889 793.6 101.364622 497.777778l74.353778 0 341.936356 239.968711L858.908444 497.777778 932.977778 497.777778 517.688889 793.6zM557.511111 163.043556 557.511111 445.667556c13.084444 5.688889 23.665778 16.270222 29.354667 29.354667L448.512 475.022222c5.688889-13.084444 16.270222-23.665778 29.354667-29.354667l0-282.624c-13.084444-5.688889-23.665778-16.270222-29.354667-29.354667l138.353778 0C581.176889 146.773333 570.595556 157.354667 557.511111 163.043556zM352.711111 163.043556 352.711111 445.667556c13.084444 5.688889 23.665778 16.270222 29.354667 29.354667L243.712 475.022222c5.688889-13.084444 16.270222-23.665778 29.354667-29.354667l0-282.624c-13.084444-5.688889-23.665778-16.270222-29.354667-29.354667l138.353778 0C376.376889 146.773333 365.795556 157.354667 352.711111 163.043556zM762.311111 163.043556 762.311111 445.667556c13.084444 5.688889 23.665778 16.270222 29.354667 29.354667L653.312 475.022222c5.688889-13.084444 16.270222-23.665778 29.354667-29.354667l0-282.624c-13.084444-5.688889-23.665778-16.270222-29.354667-29.354667l138.353778 0C785.976889 146.773333 775.395556 157.354667 762.311111 163.043556zM802.133333 497.777778l-284.444444 204.8-284.444444-204.8L802.133333 497.777778zM830.577778 110.933333 204.8 110.933333l0-45.511111 625.777778 0L830.577778 110.933333z"  horiz-adv-x="1024" />

    
    <glyph glyph-name="xitongcanshu" unicode="&#59011;" d="M173.8 518.5c6-6 14.1-9.4 22.6-9.4s16.6 3.4 22.6 9.4l148.6 148.6c12.5 12.5 12.5 32.8 0 45.3-12.5 12.5-32.8 12.5-45.3 0L196.4 586.4l-70.9 70.9c-12.5 12.5-32.8 12.5-45.3 0-12.5-12.5-12.5-32.8 0-45.3L173.8 518.5zM406.1 832 42.5 832l-0.9 0c-23 0-41.6-18.6-41.6-41.9L0 426.5l0-1.2c0-23 18.6-41.3 41.6-41.3l363.3 0 1.2 0c23 0 41.9 18.3 41.9 41.3l0 364.1 0 0.6C448 813.4 429.1 832 406.1 832zM384 448 64 448l0 320 320 0L384 448zM576 640l416 0c17.7 0 32 14.3 32 32s-14.3 32-32 32L576 704c-17.7 0-32-14.3-32-32S558.3 640 576 640zM992 512 576 512c-17.7 0-32-14.3-32-32s14.3-32 32-32l416 0c17.7 0 32 14.3 32 32S1009.7 512 992 512zM173.8 6.5c6.2-6.2 14.4-9.4 22.6-9.4s16.4 3.1 22.6 9.4l148.6 148.6c12.5 12.5 12.5 32.8 0 45.3-12.5 12.5-32.8 12.5-45.3 0L196.4 74.4l-70.9 70.9c-12.5 12.5-32.8 12.5-45.3 0-12.5-12.5-12.5-32.8 0-45.3L173.8 6.5zM406.1 320 42.5 320l-0.9 0c-23 0-41.6-18.6-41.6-41.9l0-363.5 0-1.2c0-23 18.6-41.3 41.6-41.3l363.3 0 1.2 0c23 0 41.9 18.3 41.9 41.3L448 277.5l0 0.6C448 301.4 429.1 320 406.1 320zM384-64 64-64l0 320 320 0L384-64zM992 192 576 192c-17.7 0-32-14.3-32-32s14.3-32 32-32l416 0c17.7 0 32 14.3 32 32S1009.7 192 992 192zM992 0 576 0c-17.7 0-32-14.3-32-32s14.3-32 32-32l416 0c17.7 0 32 14.3 32 32S1009.7 0 992 0z"  horiz-adv-x="1024" />

    
    <glyph glyph-name="liebiao" unicode="&#58970;" d="M845.05921027-37.875L178.94078973-37.875C165.19953821-37.875 154.05977063-26.73523241999999 154.05977063-12.993980889999989L154.05977063 780.99398089C154.05977063 794.73523242 165.19953821 805.875 178.94078973 805.875L845.05921027 805.875C858.80046179 805.875 869.94022937 794.73523242 869.94022937 780.99398089L869.94022937-12.993980889999989C869.94022937-26.73523241999999 858.80046179-37.875 845.05921027-37.875ZM820.17819117 756.11296178L203.82180883 756.11296178 203.82180883 11.887038220000022 820.17819117 11.887038220000022 820.17819117 756.11296178ZM307.44022993 563.36380153L566.95870681 563.36380153C580.69995835 563.36380153 591.83972592 552.22403393 591.83972592 538.48278241 591.83972592 524.74153171 580.69995835 513.60176413 566.95870681 513.60176413L307.44022993 513.60176413C293.69897838 513.60176413 282.55921081 524.74153171 282.55921081 538.48278241 282.55921081 552.22403393 293.69897838 563.36380153 307.44022993 563.36380153ZM307.44022993 409.66839276L566.95870681 409.66839276C580.69995835 409.66839276 591.83972592 398.52862519 591.83972592 384.78737366 591.83972592 371.04612295000004 580.69995835 359.90635538000004 566.95870681 359.90635538000004L307.44022993 359.90635538000004C293.69897838 359.90635538000004 282.55921081 371.04612295000004 282.55921081 384.78737366 282.55921081 398.52862519 293.69897838 409.66839276 307.44022993 409.66839276ZM307.44022993 255.97298401L566.95870681 255.97298401C580.69995835 255.97298401 591.83972592 244.83321644 591.83972592 231.09196491 591.83972592 217.35071420999998 580.69995835 206.21094662999997 566.95870681 206.21094662999997L307.44022993 206.21094662999997C293.69897838 206.21094662999997 282.55921081 217.35071420999998 282.55921081 231.09196491 282.55921081 244.83321644 293.69897838 255.97298401 307.44022993 255.97298401ZM654.51469787 562.41895312C668.77782031 562.41895312 680.34056537 550.85620807 680.34056537 536.5930848099999 680.34056537 522.32996238 668.77782031 510.76721731 654.51469787 510.76721731 640.25157462 510.76721731 628.68882957 522.32996238 628.68882957 536.5930848099999 628.68882957 550.85620807 640.25157462 562.41895312 654.51469787 562.41895312ZM654.51469787 410.61324197C668.77782031 410.61324197 680.34056537 399.05049692 680.34056537 384.78737366 680.34056537 370.52425121 668.77782031 358.96150617 654.51469787 358.96150617 640.25157462 358.96150617 628.68882957 370.52425121 628.68882957 384.78737366 628.68882957 399.05049692 640.25157462 410.61324197 654.51469787 410.61324197ZM654.51469787 257.86268161C668.77782031 257.86268161 680.34056537 246.29993735000005 680.34056537 232.03681412000003 680.34056537 217.77369084999998 668.77782031 206.21094662999997 654.51469787 206.21094662999997 640.25157462 206.21094662999997 628.68882957 217.77369084999998 628.68882957 232.03681412000003 628.68882957 246.29993735000005 640.25157462 257.86268161 654.51469787 257.86268161Z"  horiz-adv-x="1024" />

    
    <glyph glyph-name="iconzhuanqu85-copy" unicode="&#59024;" d="M511.999 758.352c-99.993 0-194-38.939-264.705-109.641-70.707-70.707-109.648-164.716-109.648-264.712 0-99.989 38.941-193.996 109.648-264.702s164.715-109.648 264.705-109.648c99.984 0 193.988 38.94 264.699 109.648 70.712 70.708 109.654 164.716 109.654 264.702 0 99.995-38.944 194.006-109.654 264.712-70.708 70.704-164.714 109.641-264.699 109.641zM678.716 285.791c10.463 0 18.946-8.483 18.946-18.946s-8.483-18.946-18.946-18.946h-122.884v-55.318c-104.252 3.731-218.286 92.537-232.278 180.097h-56.494c-10.463 0-18.946 8.483-18.946 18.946s8.483 18.946 18.946 18.946h56.982c15.909 85.057 128.632 161.157 231.79 164.849v-61.836h122.884c10.463 0 18.946-8.483 18.946-18.946s-8.483-18.946-18.946-18.946h-122.884v-189.898l122.884-0z"  horiz-adv-x="1024" />

    
    <glyph glyph-name="jinyong" unicode="&#59006;" d="M508-94.4c-261.6 0-474.4 212-474.4 474.4S246.4 854.4 508 854.4s474.4-212 474.4-474.4S769.6-94.4 508-94.4zM508 759.2c-209.6 0-379.2-169.6-379.2-379.2 0-209.6 169.6-379.2 379.2-379.2s379.2 169.6 379.2 379.2C887.2 589.6 717.6 759.2 508 759.2zM697.6 332.8 318.4 332.8c-26.4 0-47.2 21.6-47.2 47.2 0 26.4 21.6 47.2 47.2 47.2l379.2 0c26.4 0 47.2-21.6 47.2-47.2C744.8 353.6 724 332.8 697.6 332.8z"  horiz-adv-x="1024" />

    
    <glyph glyph-name="jisuxiangying" unicode="&#58916;" d="M392.123772 515.727137 61.289901 192.138274 244.052388 167.383474 122.833583-56.269305 441.414385 262.311497 289.364387 293.387259ZM518.832615 698.01788c-18.569938 0-33.642215-15.071254-33.642215-33.642215l0-269.134647c0-18.569938 15.071254-33.642215 33.642215-33.642215l201.851241 0c18.569938 0 33.642215 15.071254 33.642215 33.642215 0 18.569938-15.071254 33.642215-33.642215 33.642215L552.47483 428.883233 552.47483 664.375665C552.47483 682.946626 537.403576 698.01788 518.832615 698.01788zM552.47483 832.584692c-222.775806 0-403.702482-180.993191-403.702482-403.702482l67.283406 0c0 185.702446 150.715607 336.418053 336.418053 336.418053s336.418053-150.715607 336.418053-336.418053S738.178299 92.465181 552.47483 92.465181c-56.776098 0-110.258173 14.126742-157.184949 38.997176l-43.618427-52.755528c59.163471-34.030048 127.723963-53.525054 200.804399-53.525054 222.775806 0 403.702482 180.925652 403.702482 403.701458C956.177312 651.592524 775.250636 832.584692 552.47483 832.584692z"  horiz-adv-x="1024" />

    
    <glyph glyph-name="renminbi" unicode="&#58987;" d="M851.2 838.4 608 430.933333l211.2 0 0-72.533333L561.066667 358.4l0-115.2 260.266667 0L821.333333 170.666667 561.066667 170.666667l0-241.066667-96 0L465.066667 170.666667 206.933333 170.666667l0 72.533333 258.133333 0 0 115.2L206.933333 358.4l0 72.533333 211.2 0L172.8 838.4l106.666667 0 234.666667-401.066667L746.666667 838.4 851.2 838.4z"  horiz-adv-x="1024" />

    
    <glyph glyph-name="loufang" unicode="&#58960;" d="M1007.282372-40.600731 957.286301-40.600731 957.286301 579.327649C957.286301 595.991365 948.439172 611.400694 934.055192 619.791782L680.274007 767.854026C665.80191 776.301714 647.918271 776.358313 633.389622 768.004078 618.866232 759.648529 609.907317 744.157592 609.907317 727.389893L609.907317-40.600731 556.683825-40.600731 556.683825 849.164007C556.683825 864.907664 548.771782 879.60227 535.635893 888.271087 522.500007 896.93464 505.890763 898.41542 491.434449 892.20404L94.839288 721.889287C77.644796 714.50513 66.496126 697.574215 66.496126 678.847938L66.496126-40.600731 16.678918-40.600731C7.520095-40.600731 0.095978-48.029642 0.095978-57.192052L0.095978-111.174066C0.095978-120.336476 7.520095-127.765387 16.678918-127.765387L1007.282372-127.765387C1016.437249-127.765387 1023.861365-120.336476 1023.861365-111.174066L1023.861365-57.192052C1023.861365-48.029642 1016.437249-40.600731 1007.282372-40.600731L1007.282372-40.600731ZM739.184278 600.150713C739.184278 609.318387 746.607081 616.748614 755.767219 616.748614L808.440968 616.748614C817.601107 616.748614 825.023909 609.318387 825.023909 600.150713L825.023909 547.429664C825.023909 538.267254 817.601107 530.837027 808.440968 530.837027L755.767219 530.837027C746.607081 530.837027 739.184278 538.267254 739.184278 547.429664L739.184278 600.150713 739.184278 600.150713ZM739.184278 467.400395C739.184278 476.568071 746.607081 483.996982 755.767219 483.996982L808.440968 483.996982C817.601107 483.996982 825.023909 476.568071 825.023909 467.400395L825.023909 414.678032C825.023909 405.515622 817.601107 398.086711 808.440968 398.086711L755.767219 398.086711C746.607081 398.086711 739.184278 405.515622 739.184278 414.678032L739.184278 467.400395 739.184278 467.400395ZM739.184278 334.654028C739.184278 343.816439 746.607081 351.246665 755.767219 351.246665L808.440968 351.246665C817.601107 351.246665 825.023909 343.816439 825.023909 334.654028L825.023909 281.932982C825.023909 272.765306 817.601107 265.335079 808.440968 265.335079L755.767219 265.335079C746.607081 265.335079 739.184278 272.765306 739.184278 281.932982L739.184278 334.654028 739.184278 334.654028ZM739.184278 201.903712C739.184278 211.071388 746.607081 218.500299 755.767219 218.500299L808.440968 218.500299C817.601107 218.500299 825.023909 211.071388 825.023909 201.903712L825.023909 149.18135C825.023909 140.018937 817.601107 132.584763 808.440968 132.584763L755.767219 132.584763C746.607081 132.584763 739.184278 140.018937 739.184278 149.18135L739.184278 201.903712 739.184278 201.903712ZM739.184278 69.15208C739.184278 78.319754 746.607081 85.749983 755.767219 85.749983L808.440968 85.749983C817.601107 85.749983 825.023909 78.319754 825.023909 69.15208L825.023909 16.431033C825.023909 7.268621 817.601107-0.161606 808.440968-0.161606L755.767219-0.161606C746.607081-0.161606 739.184278 7.268621 739.184278 16.431033L739.184278 69.15208 739.184278 69.15208ZM347.855046 732.902345C347.855046 742.064755 355.277848 749.49893 364.437985 749.49893L417.116997 749.49893C426.277134 749.49893 433.699936 742.064755 433.699936 732.902345L433.699936 680.179982C433.699936 671.012306 426.277134 663.583395 417.116997 663.583395L364.437985 663.583395C355.277848 663.583395 347.855046 671.012306 347.855046 680.179982L347.855046 732.902345 347.855046 732.902345ZM347.855046 600.150713C347.855046 609.318387 355.277848 616.748614 364.437985 616.748614L417.116997 616.748614C426.277134 616.748614 433.699936 609.318387 433.699936 600.150713L433.699936 547.429664C433.699936 538.267254 426.277134 530.837027 417.116997 530.837027L364.437985 530.837027C355.277848 530.837027 347.855046 538.267254 347.855046 547.429664L347.855046 600.150713 347.855046 600.150713ZM347.855046 467.400395C347.855046 476.568071 355.277848 483.996982 364.437985 483.996982L417.116997 483.996982C426.277134 483.996982 433.699936 476.568071 433.699936 467.400395L433.699936 414.678032C433.699936 405.515622 426.277134 398.086711 417.116997 398.086711L364.437985 398.086711C355.277848 398.086711 347.855046 405.515622 347.855046 414.678032L347.855046 467.400395 347.855046 467.400395ZM347.855046 334.654028C347.855046 343.816439 355.277848 351.246665 364.437985 351.246665L417.116997 351.246665C426.277134 351.246665 433.699936 343.816439 433.699936 334.654028L433.699936 281.932982C433.699936 272.765306 426.277134 265.335079 417.116997 265.335079L364.437985 265.335079C355.277848 265.335079 347.855046 272.765306 347.855046 281.932982L347.855046 334.654028 347.855046 334.654028ZM347.855046 201.903712C347.855046 211.071388 355.277848 218.500299 364.437985 218.500299L417.116997 218.500299C426.277134 218.500299 433.699936 211.071388 433.699936 201.903712L433.699936 149.18135C433.699936 140.018937 426.277134 132.584763 417.116997 132.584763L364.437985 132.584763C355.277848 132.584763 347.855046 140.018937 347.855046 149.18135L347.855046 201.903712 347.855046 201.903712ZM347.855046 69.15208C347.855046 78.319754 355.277848 85.749983 364.437985 85.749983L417.116997 85.749983C426.277134 85.749983 433.699936 78.319754 433.699936 69.15208L433.699936 16.431033C433.699936 7.268621 426.277134-0.161606 417.116997-0.161606L364.437985-0.161606C355.277848-0.161606 347.855046 7.268621 347.855046 16.431033L347.855046 69.15208 347.855046 69.15208ZM188.164847 600.150713C188.164847 609.318387 195.588965 616.748614 204.747788 616.748614L257.426798 616.748614C266.581675 616.748614 274.009737 609.318387 274.009737 600.150713L274.009737 547.429664C274.009737 538.267254 266.581675 530.837027 257.426798 530.837027L204.747788 530.837027C195.588965 530.837027 188.164847 538.267254 188.164847 547.429664L188.164847 600.150713 188.164847 600.150713ZM188.164847 467.400395C188.164847 476.568071 195.588965 483.996982 204.747788 483.996982L257.426798 483.996982C266.581675 483.996982 274.009737 476.568071 274.009737 467.400395L274.009737 414.678032C274.009737 405.515622 266.581675 398.086711 257.426798 398.086711L204.747788 398.086711C195.588965 398.086711 188.164847 405.515622 188.164847 414.678032L188.164847 467.400395 188.164847 467.400395ZM188.164847 334.654028C188.164847 343.816439 195.588965 351.246665 204.747788 351.246665L257.426798 351.246665C266.581675 351.246665 274.009737 343.816439 274.009737 334.654028L274.009737 281.932982C274.009737 272.765306 266.581675 265.335079 257.426798 265.335079L204.747788 265.335079C195.588965 265.335079 188.164847 272.765306 188.164847 281.932982L188.164847 334.654028 188.164847 334.654028ZM188.164847 201.903712C188.164847 211.071388 195.588965 218.500299 204.747788 218.500299L257.426798 218.500299C266.581675 218.500299 274.009737 211.071388 274.009737 201.903712L274.009737 149.18135C274.009737 140.018937 266.581675 132.584763 257.426798 132.584763L204.747788 132.584763C195.588965 132.584763 188.164847 140.018937 188.164847 149.18135L188.164847 201.903712 188.164847 201.903712ZM188.164847 69.15208C188.164847 78.319754 195.588965 85.749983 204.747788 85.749983L257.426798 85.749983C266.581675 85.749983 274.009737 78.319754 274.009737 69.15208L274.009737 16.431033C274.009737 7.268621 266.581675-0.161606 257.426798-0.161606L204.747788-0.161606C195.588965-0.161606 188.164847 7.268621 188.164847 16.431033L188.164847 69.15208 188.164847 69.15208Z"  horiz-adv-x="1024" />

    
    <glyph glyph-name="qq" unicode="&#58957;" d="M887.85832 831.450868 136.14168 831.450868c-39.540552 0-71.591525-32.051997-71.591525-71.590502l0-751.718687c0-39.538505 32.051997-71.591525 71.591525-71.591525l751.71664 0c39.538505 0 71.592548 32.05302 71.592548 71.591525L959.450868 759.860367C959.449845 799.398872 927.396825 831.450868 887.85832 831.450868zM862.687034 251.325281l0-5.110391 0-4.786003-0.860601-5.754051-1.236154-9.869788-1.720178-8.9263-2.636037-8.067746-0.967024-3.307326-1.828648-3.925403-1.560542-2.77009-2.043542-3.413749-1.829671-2.125407-2.311649-2.769067-2.043542-2.204202-2.204202-1.936095-2.636037-1.157359-2.367931-1.155313-1.934049-0.644683-1.694595 0-1.264806 0-1.908466 0.644683-3.631714 1.775436-1.664919 1.182942-1.722224 1.290389-1.910513 1.694595-1.908466 1.908466-3.173273 3.496637-3.765767 5.000897-2.957355 5.109368-2.957355 4.14132-2.877537 4.787026-4.060479 8.496511-4.570085 8.846482-0.537236 0.297782-0.754177 0-1.88186-1.37123-1.075495-2.339278-1.774413-2.851954-3.120061-8.631588-4.679579-12.235672-6.02318-14.653745-4.516874-7.341199-4.76042-7.635911-5.621021-8.606005-5.969968-8.443299-3.064802-3.818979-3.710508-4.142343-8.525164-8.389064 0.754177-0.75213 1.154289-1.182942 4.249791-2.52859 17.748223-8.497535 7.745405-4.356214 7.366781-4.247744 7.313569-5.324262 6.508227-5.539156 3.174296-2.446725 2.366907-2.877537 2.418073-3.279696 2.044566-3.63069 1.077541-2.984984 1.342578-3.603061 0.539282-3.065825 0.64366-3.629667-0.64366-2.447748 0-2.419096-0.539282-2.581802-1.342578-2.312672-0.539282-1.827625-1.182942-2.205225-3.226484-4.383844-2.956332-3.523243-2.312672-2.63399-1.936095-1.936095-4.89345-3.603061-5.54018-3.092431-5.915733-2.984984-6.293333-2.849908-7.098675-2.743484-3.764744-1.181919-3.38919-0.969071-8.175193-1.908466-8.498558-1.801019-8.496511-1.829671-9.250688-1.479701-9.573029-0.402159-9.78997-1.182942-9.680477 0-10.218736 0-10.487865 0-10.970866 0.644683-10.219759 0.940418-10.970866 1.479701-10.917654 1.183965-11.509125 1.612731-11.134595 2.743484L592.539314 42.119539l-10.81123 3.065825-11.078313 3.926426-10.862395 3.307326-5.702885 1.909489-5.109368 1.828648-3.225461 1.237177-3.174296 0.644683-4.142343 0-4.89345 0-10.431583 0.75213-5.298679 0.538259-6.80294 0.751107-4.357238-3.924379-5.969968-3.738138-8.066723-3.952009-8.928347-4.894474-5.431709-2.63399-5.647627-2.125407-12.531408-5.109368-6.80294-1.693572-7.125281-1.936095-9.895371-1.882883-6.185886-0.537236-6.562463-0.537236-6.830569-0.754177-7.959276-0.322341-7.637957 0-7.959276 0-16.914228 0-18.3663 0.322341-17.801435 1.828648-9.035794 1.238201-8.712429 1.290389-8.497535 1.291412-8.497535 1.693572-7.879458 2.555196-7.878434 1.801019-7.099698 2.877537-6.722098 2.63399-6.239098 3.012613-5.431709 3.28072-5.432733 3.926426-1.828648 1.935072-2.420119 2.312672-1.829671 2.042519-1.666966 2.312672-1.50733 2.365884-1.182942 2.312672-1.694595 5.001921-0.618077 2.555196-0.754177 2.876514 0 2.636037 0.754177 2.983961 0 2.986007 0.618077 2.983961 0 1.802042 0 4.140297 0.295735 3.201925 1.39886 3.629667 1.182942 3.603061 2.153036 4.355191 1.558495 1.694595 1.291412 1.908466 3.387144 4.14132 2.689249 2.152013 2.52859 1.478677 2.341325 1.908466 3.736091 1.183965 2.958378 1.77646 3.710508 1.935072 4.248767 1.264806 4.247744 1.290389 4.894474 1.048889 4.678556 0.645706 5.541203 0.751107 5.968945 0.431835 1.586125 0.536212 0.322341 0 0.754177 0.644683 0 0.699941-1.076518 1.506307-3.199878 1.505283-7.958252 6.883781-5.324262 4.248767-6.185886 5.431709-6.239098 6.05081-6.508227 7.770987-7.421017 8.712429-2.796696 4.679579-3.711532 4.894474-3.173273 5.64558-2.850931 6.157233-3.873214 5.834892-2.52859 6.724145-2.984984 6.66684-2.984984 7.476275-2.205225 7.098675-2.043542 8.819876-0.644683 0.323365-0.6191 0-0.322341 0.645706-0.754177 0-1.263783-0.645706-0.645706-0.323365-0.858554-1.478677-0.323365-1.802042-0.644683-1.613754-1.12973-2.63399-3.657296-6.507204-1.882883-3.926426-2.984984-3.388167-3.199878-4.140297-3.496637-4.571109-3.710508-4.061502-4.357238-3.925403-4.059456-3.710508-4.437056-2.877537-4.894474-3.091408-4.678556-1.802042-5.539156-1.39886-5.431709-0.509606-0.537236 0-0.753153 0-1.237177 0.509606-0.969071 2.152013-1.612731 1.048889-2.097778 5.108345-1.290389 2.77009-1.39886 3.925403-1.156336 4.14132-0.6191 4.033873-1.721201 9.249665-0.644683 5.433756 0 5.538133 0 12.31549 0.644683 13.283538 1.076518 6.831592 1.263783 6.990205 1.156336 7.556093 2.043542 7.018857 2.312672 8.094352 2.366907 7.852852 3.174296 8.093329 2.984984 7.745405 4.113691 7.877411 3.873214 8.497535 4.678556 7.985882 5.51255 8.606005 5.621021 7.745405 5.862521 8.603959 4.894474 5.968945 6.265704 6.91141 6.589069 6.910387 3.065825 3.279696 3.736091 3.738138 5.406127 4.705162 5.54018 4.759397 9.03477 8.094352 6.830569 4.975315 2.420119 1.802042-1.344624 4.140297-1.075495 5.431709-0.753153 2.984984 0 3.738138 0 4.463662 0 4.03285 1.290389 4.787026 1.345648 5.109368 1.720178 5.297656 2.341325 5.942339 3.091408 6.184863 4.356214 6.184863 0 4.330632 0.429789 4.060479 0.645706 5.51255 1.88186 6.15621 1.721201 6.696516 1.37123 3.093455 1.586125 2.848884 2.043542 3.200902 2.205225 2.339278 0 4.356214 0 4.894474 0 6.076392 1.290389 7.852852 1.290389 9.143241 2.312672 10.970866 3.173273 11.348466 2.366907 6.290263 2.339278 6.803963 2.555196 6.372128 3.065825 6.80294 3.119037 7.448646 3.604084 6.990205 4.03285 7.476275 5.109368 7.42204 2.340301 4.247744 2.52859 3.523243 5.458315 7.878434 5.592368 7.851828 6.399757 8.067746 6.830569 7.906064 7.42204 7.743358 7.744381 7.959276 9.358135 8.604982 5.969968 5.216815 7.232728 5.646604 7.342222 5.001921 7.959276 4.786003 7.637957 4.248767 8.604982 3.495614 9.143241 4.356214 9.087982 2.984984 9.090029 3.092431 9.787924 3.065825 9.788947 2.339278 10.326183 1.909489 10.432607 1.721201 10.272971 1.370207 10.32516 1.39886 10.972912 0.6191 10.431583 0 10.812253 0 11.18576 0 10.812253-1.37123 10.862395-1.291412 11.078313-1.155313 10.273994-2.474354 10.863419-2.311649 10.19213-2.636037 11.160177-3.01159 10.219759-3.602038 9.7869-4.14132 10.434653-4.356214 9.5454-4.786003 9.250688-5.324262 9.0624-5.862521 7.851828-5.405103 3.604084-3.092431 3.820002-2.204202 7.259334-6.185886 6.132674-5.968945 6.076392-6.157233 5.969968-6.801916 4.894474-6.589069 5.808286-6.80294 4.088108-7.313569 4.113691-6.508227 4.383844-7.554046 3.603061-6.589069 6.131651-13.929244 3.010567-7.207146 2.341325-6.723122 2.339278-7.205099 2.097778-6.831592 1.506307-5.833869 1.88186-6.91141 3.334955-12.316513 2.124384-10.754948 1.370207-10.43363 1.183965-8.389064 1.883907-12.746302 0.429789-2.043542 1.505283-2.311649 4.034896-6.614651 2.579755-4.437056 2.313695-4.705162 2.957355-4.975315 2.580778-5.969968 1.666966-6.157233 1.828648-6.695492 1.39886-6.910387 0.645706-3.388167 0.537236-4.14132 0-3.629667-0.537236-3.63069 0-4.464685-1.076518-4.355191-1.934049-8.391111-2.206248-4.247744-1.611707-4.786003 0-1.182942 0.75213-1.480724 2.205225-3.521197 9.575076-14.144138 7.581676-10.595312 3.604084-7.15291 4.89345-7.743358 4.247744-8.498558 4.89652-9.141194 4.892427-10.219759 5.513574-11.588943 3.090385-7.126304 2.850931-6.883781 2.476401-7.367805 2.420119-6.560416 1.828648-6.939039 1.880837-6.480598 2.365884-12.664438 1.882883-12.961196 1.289366-11.45489L862.688057 251.325281z"  horiz-adv-x="1024" />

    
    <glyph glyph-name="yonghu" unicode="&#58953;" d="M843.282963 25.884444c-8.438519 140.515556-104.296296 257.422222-233.908148 297.14963C687.881481 359.727407 742.4 439.466667 742.4 531.911111c0 127.241481-103.158519 230.4-230.4 230.4S281.6 659.152593 281.6 531.911111c0-92.444444 54.518519-172.183704 133.12-208.877037-129.611852-39.727407-225.46963-156.634074-233.908148-297.14963-0.663704-10.903704 7.964444-20.195556 18.962963-20.195556l0 0c9.955556 0 18.299259 7.774815 18.962963 17.73037C227.745185 177.493333 355.65037 299.614815 512 299.614815s284.254815-122.121481 293.357037-276.195556c0.568889-9.955556 8.912593-17.73037 18.962963-17.73037C835.318519 5.688889 843.946667 14.980741 843.282963 25.884444zM319.525926 531.911111c0 106.287407 86.186667 192.474074 192.474074 192.474074s192.474074-86.186667 192.474074-192.474074c0-106.287407-86.186667-192.474074-192.474074-192.474074S319.525926 425.623704 319.525926 531.911111z"  horiz-adv-x="1024" />

    
    <glyph glyph-name="fuwuqiguanli" unicode="&#58921;" d="M831.345789 129.252673c0 0-24.472019 198.395871-191.686832 191.686832 0 0-189.450485-4.344902-191.686832-191.686832 0 0-187.916991 12.204062-191.686832-127.791221-0.127791-153.86063 127.791221-127.791221 127.791221-127.791221l511.164884 0c0 0 126.768891 3.897632 127.791221 127.791221C1029.166599 159.666984 831.345789 129.252673 831.345789 129.252673zM0.702852 896l0-1022.329769 127.791221 0 0 383.373663 319.478053 0 0 127.791221-319.478053 0 0 127.791221 766.747327 0 0-127.791221-63.895611 0 0-127.791221 191.686832 0 0 638.956105L0.702852 896zM256.285294 640.417558c-35.270377 0-63.895611 28.561338-63.895611 63.895611s28.625234 63.895611 63.895611 63.895611 63.895611-28.561338 63.895611-63.895611S291.555671 640.417558 256.285294 640.417558zM447.972126 640.417558c-35.270377 0-63.895611 28.561338-63.895611 63.895611s28.625234 63.895611 63.895611 63.895611 63.895611-28.561338 63.895611-63.895611S483.242503 640.417558 447.972126 640.417558zM639.658957 640.417558c-35.334273 0-63.895611 28.561338-63.895611 63.895611s28.561338 63.895611 63.895611 63.895611 63.895611-28.561338 63.895611-63.895611S674.99323 640.417558 639.658957 640.417558z"  horiz-adv-x="1024" />

    
    <glyph glyph-name="shouji" unicode="&#58941;" d="M723.765248-46.08 309.92384-46.08c-24.301568 0-39.58784 18.874368-39.58784 43.175936L270.336 765.648896C270.336 789.948416 285.620224 814.08 309.92384 814.08l413.843456 0C748.068864 814.08 755.712 789.948416 755.712 765.648896l0-768.55296c0-24.301568-8.01792-43.175936-32.323584-43.175936L723.765248-46.08zM516.440064-2.904064c16.20992 0 29.964288 13.785088 29.964288 29.964288 0 16.20992-13.754368 29.157376-29.964288 29.157376s-29.157376-12.947456-29.157376-29.157376C487.282688 10.881024 500.230144-2.904064 516.440064-2.904064L516.440064-2.904064zM729.088 728.064l-19.9168 0L324.513792 728.064 299.008 728.064l0-630.784 25.505792 0 384.657408 0L729.088 97.28 729.088 728.064z"  horiz-adv-x="1024" />

    
    <glyph glyph-name="yanzhengma" unicode="&#58947;" d="M964.487963 538.651477c-4.886424-70.287753-4.001239-141.573257-15.95379-210.638125-20.435997-118.087723-85.131225-211.52331-181.247949-282.803698-66.926098-49.631739-134.379214-98.542028-201.627662-147.743966-30.009294-21.955649-60.985639-23.347384-89.618548-2.312737-76.064478 55.874082-153.239274 110.382012-227.129166 169.024214-94.745455 75.194643-153.822575 174.918623-163.748923 295.150232-9.220247 111.696997-5.526008 224.519662-5.771608 336.851127-0.056283 24.462819 15.401189 43.941998 39.331874 51.668176 127.701954 41.235277 255.465308 82.311937 383.842662 121.367511 16.209624 4.932474 37.126588 0.844251 54.170229-4.47709 118.44589-36.983321 236.472213-75.302094 354.559936-113.421316 32.716015-10.560815 48.403738-32.301564 48.547004-66.603748 0.19955-48.582821 0.051167-97.165642 0.051167-145.748463C961.428192 538.86126 962.958077 538.75381 964.487963 538.651477zM123.577914 537.029491c0-37.510338-0.603768-75.036027 0.10745-112.536132 2.563454-135.136481 57.598401-245.743627 162.060421-329.841283 66.163714-53.264578 137.121751-100.542647 205.1377-151.550772 20.40018-15.298856 36.870754-14.966272 57.086734 0.2763 63.804927 48.112087 129.088572 94.259371 192.878149 142.386809 100.864998 76.105411 162.587438 176.397342 170.697367 303.301094 5.863709 91.701034 2.604387 183.990486 3.300255 276.024104 0.1842 24.667486-12.367001 38.405756-35.929286 45.886334-111.763514 35.468785-223.07676 72.360006-334.983541 107.363174-14.459721 4.52314-32.685315 5.050157-47.032469 0.578184-112.766382-35.156668-224.898296-72.344656-337.500944-108.023225-24.92332-7.895028-36.15442-22.912467-35.898586-48.536771C123.920732 620.579663 123.618848 578.802019 123.577914 537.029491zM519.536861 588.7079c70.75337 0.01535 141.511857 0.081867 212.265228-0.040933 13.61547-0.025583 29.789277 1.739669 28.576625-19.187528-0.997751-17.186909-10.985499-24.72377-29.001309-24.467936-51.990526 0.741918-104.052686-1.141018-155.976695 0.844251-26.202488 1.002868-33.95425-7.976895-33.723999-33.263499 0.972168-106.549623 0.639584-213.119712 0.01535-319.674452-0.056283-10.003098-2.911388-22.426383-9.296997-29.113876-4.38499-4.594773-19.310328-4.502673-25.511737-0.414451-5.771608 3.801689-8.616479 15.651906-8.662529 23.976735-0.547484 108.263709-0.3377 216.527417-0.383751 324.791126-0.01535 32.889982-0.158617 33.033248-32.644381 33.084415-49.442422 0.081867-98.889962 0.020467-148.332384 0.025583-5.116674 0-11.911617-2.041553-15.022555 0.465617-8.790446 7.086594-20.61508 14.945805-22.932934 24.513986-3.883556 16.03054 10.269165 18.455844 23.250167 18.450727C374.617299 588.672083 447.074522 588.69255 519.536861 588.7079z"  horiz-adv-x="1024" />

    
    <glyph glyph-name="qia" unicode="&#59047;" d="M102.4 691.2l0-614.4 819.2 0 0 614.4L102.4 691.2zM887.46666667 110.93333332999998l-750.93333334 0L136.53333333 438.61333333l750.93333334 0L887.46666667 110.93333332999998zM887.46666667 575.1466666700001l-750.93333334 0L136.53333333 657.06666667l750.93333334 0L887.46666667 575.1466666700001zM204.8 322.55999999999995L512 322.55999999999995c6.82666667 0 13.65333333 6.82666667 13.65333333 13.65333333S525.65333333 356.69333333 512 356.69333333L204.8 356.69333333c-6.82666667 0-13.65333333-6.82666667-13.65333333-13.65333333S197.97333333 322.55999999999995 204.8 322.55999999999995zM204.8 199.67999999999995l184.32 0c6.82666667 0 13.65333333 6.82666667 13.65333333 13.65333333l0 6.82666667c0 6.82666667-6.82666667 13.65333333-13.65333333 13.65333333L204.8 233.81333332999998c-6.82666667 0-13.65333333-6.82666667-13.65333333-13.65333333l0-6.82666667C191.14666667 206.50666666999996 197.97333333 199.67999999999995 204.8 199.67999999999995zM669.01333333 356.69333333l170.66666667 0 0-157.01333333-170.66666667 0 0 157.01333333Z"  horiz-adv-x="1024" />

    
    <glyph glyph-name="jiankong1" unicode="&#58929;" d="M816.116397 139.984855c66.486253 79.953933 106.507719 182.64078 106.507719 294.71971 0 254.783152-206.516375 461.295435-461.311803 461.295435-254.742232 0-461.311803-206.512283-461.311803-461.295435 0-254.742232 206.56957-461.299527 461.311803-461.299527 112.103482 0 214.769869 40.018398 294.722779 106.503627l207.888206-207.908666 60.076189 60.080281L816.116397 139.984855zM461.312314 21.962345c-227.622732 0-412.749381 185.147109-412.749381 412.741197 0 0.932968 0.011253 1.86389 0.017391 2.795835C168.604828 310.872488 271.562767 199.679468 450.560675 199.679468c182.771723 0 317.107876 146.759359 409.599591 243.105706C765.481395 555.654876 631.132967 691.199182 450.560675 691.199182c-146.909739 0-262.043321-90.226812-401.542511-237.14985C59.154985 672.692245 240.175347 847.444739 461.312314 847.444739c227.57772 0 412.757565-185.151201 412.757565-412.741197C874.069879 207.109454 688.890034 21.962345 461.312314 21.962345zM286.721453 445.443928c0 90.333203 73.494766 163.823878 163.840246 163.823878 90.349571 0 163.840246-73.490674 163.840246-163.823878 0-90.337295-73.490674-163.82797-163.840246-163.82797C360.215196 281.615959 286.721453 355.106633 286.721453 445.443928zM546.136709 445.443928c0 52.691214-42.880728 95.571942-95.576034 95.571942-52.691214 0-95.571942-42.880728-95.571942-95.571942 0-52.695306 42.880728-95.571942 95.571942-95.571942C503.255982 349.871986 546.136709 392.748622 546.136709 445.443928z"  horiz-adv-x="1024" />

    
    <glyph glyph-name="icon" unicode="&#59034;" d="M400.473951 739.195721c17.248849 0 31.233352 13.985526 31.233352 31.233352L431.707302 800.900062c0 17.248849-13.985526 31.233352-31.233352 31.233352s-31.233352-13.985526-31.233352-31.233352l0-30.470989C369.239576 753.180224 383.225101 739.195721 400.473951 739.195721zM623.426789 739.195721c17.248849 0 31.233352 13.985526 31.233352 31.233352L654.66014 800.900062c0 17.248849-13.985526 31.233352-31.233352 31.233352-17.248849 0-31.234375-13.985526-31.234375-31.233352l0-30.470989C592.192414 753.180224 606.177939 739.195721 623.426789 739.195721zM428.701852 669.11255c11.209296-18.047028 41.97602-48.589648 86.157265-48.589648 43.958164 0 75.100442 30.3134 86.574774 48.223305 9.302877 14.528901 5.068436 33.846876-9.455349 43.149752-14.549368 9.307993-33.846876 5.068436-43.149752-9.455349-0.121773-0.198521-13.379729-19.449981-33.968649-19.449981-20.008706 0-32.443923 18.127869-33.277918 19.373233-9.165754 14.422478-28.28009 18.804275-42.829458 9.760295C424.095951 703.019801 419.597497 683.763225 428.701852 669.11255zM762.273067 755.656625c-14.295588 9.653871-33.714869 5.897314-43.363623-8.398274-9.658987-14.290471-5.897314-33.709753 8.398274-43.363623 106.359376-71.852468 169.859619-191.271278 169.859619-319.445496 0-201.879893-156.140153-367.871415-353.984127-383.837038L543.18321 248.11107700000002c49.735751 13.732769 86.412069 59.264778 86.412069 113.308649 0 64.872496-52.772924 117.64542-117.64542 117.64542s-117.650537-52.772924-117.650537-117.64542c0-54.044894 36.679387-99.57588 86.417185-113.308649l0-247.498884C282.872532 16.577815999999984 126.732379 182.56933800000002 126.732379 384.449231c0 128.173195 63.49922 247.593028 169.854503 319.445496 14.295588 9.653871 18.057261 29.073152 8.398274 43.363623-9.653871 14.295588-29.073152 18.052145-43.363623 8.398274C138.044006 672.172235 64.264653 533.4047519999999 64.264653 384.449231c0-246.851131 200.828958-447.680089 447.685205-447.680089s447.685205 200.828958 447.685205 447.680089C959.635063 533.4047519999999 885.856733 672.172235 762.273067 755.656625zM456.767048 361.420749c0 30.425963 24.756847 55.177694 55.18281 55.177694s55.177694-24.75173 55.177694-55.177694c0-30.425963-24.75173-55.18281-55.177694-55.18281S456.767048 330.994786 456.767048 361.420749zM389.251352 155.34018300000002c3.970428-1.677199 8.093329-2.475378 12.149714-2.475378 12.175297 0 23.740704 7.163143 28.783557 19.078521 6.715959 15.886829-0.716314 34.213219-16.603143 40.933271-60.408835 25.549909-99.44592 84.439134-99.44592 150.027945 0 62.925145 36.84107 120.843252 93.858668 147.542334 15.621792 7.315616 22.353101 25.911136 15.037485 41.532929-7.305383 15.616676-25.90602 22.353101-41.532929 15.037485-78.867232-36.932144-129.830951-117.055996-129.830951-204.112748C251.667833 272.161842 305.671795 190.68620299999998 389.251352 155.34018300000002zM610.318236 212.87659799999994c-15.886829-6.721075-23.319102-25.047466-16.603143-40.933271 5.042853-11.916401 16.60826-19.078521 28.783557-19.078521 4.056386 0 8.179286 0.798179 12.149714 2.475378 83.579557 35.347043 137.583518 116.821659 137.583518 207.564359 0 87.056752-50.963719 167.175487-129.836067 204.112748-15.637142 7.336082-34.223452 0.584308-41.532929-15.037485-7.315616-15.621792-0.584308-34.218336 15.037485-41.532929 57.022715-26.704199 93.863784-84.61719 93.863784-147.542334C709.764156 297.315732 670.727071 238.42650700000002 610.318236 212.87659799999994z"  horiz-adv-x="1024" />

    
    <glyph glyph-name="home1" unicode="&#58919;" d="M-664.554667 646.592M-664.554667 646.592M829.781333-64l-211.861333 0c-12.074667 0-21.866667 9.770667-21.866667 21.866667L596.053333 253.781333l-168.128 0 0-295.936c0-12.074667-9.770667-21.866667-21.866667-21.866667L194.218667-64.021333c-55.168 0-74.816 38.656-74.816 74.816L119.402667 306.752 52.693333 306.752c-21.482667 0-35.285333 6.933333-41.088 20.629333-8.64 20.394667 7.317333 40.661333 22.208 56.064L459.050667 809.088C472.448 822.976 491.029333 831.210667 511.146667 832c21.866667-0.789333 40.469333-9.024 54.122667-23.210667L989.866667 383.722667c15.146667-15.68 31.168-35.968 22.549333-56.362667-5.802667-13.674667-19.648-20.629333-41.109333-20.629333l-66.688 0 0-295.936C904.618667-25.344 884.949333-64 829.781333-64z"  horiz-adv-x="1024" />

    
    <glyph glyph-name="quanping1" unicode="&#59302;" d="M218.688721 727.355045l-0.013303 0 0 0.014326L218.688721 727.355045l128.45665 0.556679c19.003819-0.508583 36.624129 13.658068 39.493479 37.807071L386.638851 791.80287c-0.474814 20.503986-16.169261 37.442774-35.158754 37.897122l-245.311055-1.561565c-0.37146 0.040932-0.605797 0.186242-0.935302 0.186242l-17.193591 0.412392c-9.494235 0.24764-18.012236-3.756557-24.087605-10.389628-6.151094-6.591115-8.428973-15.797801-8.18031-26.090215l1.843998-18.562774c0-0.37146-1.280156-0.61296-1.280156-1.025353l0.956791-265.449721c0.412392-20.454868 16.121166-32.736589 35.165918-33.190937l25.552979 0c19.003819-0.454348 34.092469 17.359366 33.665751 37.786605l-1.073448 144.370085 169.152515-179.211615c18.377556-19.84293 48.128137-19.84293 66.518996 0 18.329461 19.835767 18.329461 51.897997 0 71.755254L218.688721 727.355045zM948.293761-3.895471c-0.034792 0.460488 1.238201 0.722454 1.238201 1.073448l-0.014326 0.007163-0.977257 261.362636c-0.481977 20.441565-16.182564 32.67519-35.186384 33.128515l-24.163329 0.034792c-18.934235 0.467651-34.085306-17.385972-33.603329-37.849026l1.073448-141.253094L687.535899 292.983053c-18.405185 19.850094-48.106648 19.850094-66.49853 0-18.36323-19.835767-18.36323-51.897997 0-71.734788l169.104419-180.25027-128.297015-0.550539c-18.989493 0.454348-36.576033-12.115945-39.493479-36.273135l0-26.083052c0.481977-20.4958 16.237823-37.442774 35.17922-37.951357l242.160295 1.582031c0.391926 0 0.611937-0.164752 0.970094-0.164752l17.173125-0.454348c9.495258-0.240477 18.054191 3.76372 24.115234 10.417257 6.212492 6.529717 8.407484 15.763009 8.222265 26.062586L948.293761-3.895471zM386.225435 292.990217l-0.014326 0c-18.36323 19.84907-48.14144 19.84907-66.505693 0L150.561088 113.785765l1.086751 142.119835c0.413416 20.4958-14.675234 38.364773-33.610492 37.849026l-25.574469 0c-19.051915-0.509606-34.745339-12.68695-35.172057-33.183773l-0.99056-263.323291c0-0.37146 1.286296-0.61296 1.286296-1.025353l-1.843998-18.521842c-0.206708-10.299577 2.00875-19.540032 8.167007-26.062586 6.068206-6.653537 14.634302-10.657734 24.067138-10.416234l17.207917 0.454348c0.358157 0 0.578168 0.164752 0.970094 0.164752l245.290589-1.589195c18.989493 0.522909 34.71157 17.455557 35.172057 37.95852l0 26.076912c-2.862187 24.157189-20.482497 36.72032-39.438221 36.273135l-129.955794 0.454348 169.001065 180.24413C404.568199 241.029798 404.568199 273.154449 386.225435 292.990217zM941.984055 818.347432c-6.068206 6.632047-14.634302 10.637268-24.115234 10.354835l-17.152658-0.412392c-0.385786 0-0.61296-0.144286-0.99056-0.206708L654.063553 829.666222c-19.017122-0.474814-34.704406-17.414625-35.186384-37.910425l-0.048095-26.090215c2.917446-24.190959 20.565385-38.302351 39.486316-37.841863l130.368186-0.556679L621.181655 548.618245c-18.418488-19.75288-18.418488-51.815109-0.048095-71.6519l0-0.007163c18.377556-19.84293 48.093345-19.84293 66.491367 0l169.132048 180.327018-1.086751-145.471163c-0.461511-20.434401 14.696724-38.309514 33.617655-37.85619l24.163329 0c18.989493 0.522909 34.69008 12.756535 35.172057 33.197076l0.977257 265.512143c0 0.412392-1.258667 0.661056-1.258667 1.032516l1.851161 18.562774C950.391539 802.550655 948.183244 811.762457 941.984055 818.347432z"  horiz-adv-x="1024" />

    
    <glyph glyph-name="xiaofanggongcheng" unicode="&#58945;" d="M854.609567 821.58415c-2.879584 0-5.814426-0.216941-8.856715-0.760317L621.66005 783.547859c-30.211069-5.053086-54.880935-34.232662-54.880935-64.826448L399.525857 718.721411c-161.27715 0-222.189452 93.298919-224.689389 97.320513-8.096399 12.986779-25.157983 16.953114-38.20002 9.019421-13.095249-8.04114-17.171078-25.213241-9.128915-38.308491 1.847068-3.043313 30.646997-47.437405 95.362928-82.159208-43.036165-34.722826-100.471272-101.775988-99.492992-211.919551l0-358.360807c0-15.378246 12.443403-27.821649 27.821649-27.821649 15.377222 0 27.821649 12.44238 27.821649 27.821649L179.020768 492.946294c-1.032516 116.174929 79.171154 171.817204 105.090477 186.706309 32.712029-9.781784 70.585615-16.573467 115.414613-16.573467l29.233811 0 0-31.353079L247.106446 520.65845c-8.259104-5.107321-13.313214-14.07353-13.313214-23.74582l0.216941-530.23327c0-15.377222 12.443403-27.821649 27.821649-27.821649l389.496945 0c15.377222 0 27.821649 12.443403 27.821649 27.821649l0.217964 530.23327c0 9.56382-4.944616 18.47477-13.041014 23.583115L484.401943 634.551406l0 28.52773 82.377172 0c0-30.592762 24.668843-59.771315 54.880935-64.825424l224.091778-37.276998c3.043313-0.542352 5.977132-0.760317 8.856715-0.760317 26.027793 0 46.02422 19.671015 46.02422 47.220465L900.632763 774.363685C900.632763 801.914158 880.636337 821.58415 854.609567 821.58415zM623.562377 162.134937 510.267031 162.134937 510.267031 329.225489l113.403816 0L623.562377 162.134937zM623.726106 481.535407l-0.055259-96.668667L482.445382 384.86674c-15.377222 0-27.821649-12.44238-27.821649-27.820626l0-222.731804c0-15.378246 12.443403-27.821649 27.821649-27.821649l141.116995 0-0.055259-111.991654L289.653471-5.498992l-0.216941 486.816434 169.425737 103.56882L623.726106 481.535407zM844.990488 617.488799 630.789988 653.13567c-3.369747 0.597611-8.368598 6.519484-8.368598 9.943466l0 55.642275c0 3.423983 4.998851 9.346879 8.368598 9.94449l214.2005 35.645848L844.990488 617.488799z"  horiz-adv-x="1024" />

    
    <glyph glyph-name="tongji1" unicode="&#58959;" d="M302.933333 179.2l-72.533333 0c-21.333333 0-42.666667 17.066667-42.666667 42.666667l0 337.066667c0 21.333333 17.066667 42.666667 42.666667 42.666667l72.533333 0c21.333333 0 42.666667-17.066667 42.666667-42.666667l0-337.066667C345.6 196.266667 324.266667 179.2 302.933333 179.2L302.933333 179.2zM537.6 179.2l-72.533333 0c-21.333333 0-42.666667 17.066667-42.666667 42.666667l0 209.066667c0 21.333333 17.066667 42.666667 42.666667 42.666667l72.533333 0c21.333333 0 42.666667-17.066667 42.666667-42.666667l0-209.066667C580.266667 196.266667 563.2 179.2 537.6 179.2L537.6 179.2zM776.533333 179.2l-72.533333 0c-21.333333 0-42.666667 17.066667-42.666667 42.666667l0 456.533333c0 21.333333 17.066667 42.666667 42.666667 42.666667l72.533333 0c21.333333 0 42.666667-17.066667 42.666667-42.666667l0-456.533333C819.2 196.266667 797.866667 179.2 776.533333 179.2L776.533333 179.2zM900.266667 51.2l-776.533333 0c-17.066667 0-34.133333 17.066667-34.133333 34.133333l0 4.266667c0 17.066667 17.066667 34.133333 34.133333 34.133333l776.533333 0c17.066667 0 34.133333-17.066667 34.133333-34.133333l0-4.266667C934.4 68.266667 917.333333 51.2 900.266667 51.2L900.266667 51.2z"  horiz-adv-x="1024" />

    
    <glyph glyph-name="zidian" unicode="&#59400;" d="M944.883081 111.82818 944.883081 830.836885c-2.898003 0.151449-5.935176 0.391926-8.621355 0.391926-203.078185 0-529.800411 0.12075-732.87962-0.2415-13.431917-0.030699-27.364231-2.052752-40.179095-5.947456-51.588959-15.72617-83.811848-60.975746-83.827197-116.307959-0.060375-232.132918-0.030699-391.817804-0.01535-623.951745 0-2.958378 0.029676-5.916756 0.12075-8.904811 1.298576-41.537022 16.346293-86.408999 50.335409-112.610754 23.893176-18.443048 51.362808-27.333532 81.820494-27.333532l732.279962 0 0 3.563152c0.966001-0.061398 0.966001-0.061398 0.966001-0.12075L944.883081 5.331681c-18.35095 10.716063-30.91101 30.426987-30.91101 53.248761C913.972071 81.401194 926.532131 101.112118 944.883081 111.82818zM869.291452-3.220089 203.018833-3.220089c-34.140565 0-61.820997 27.67327-61.820997 61.813834 0 34.140565 27.680433 61.813834 61.820997 61.813834l666.272619 0c-10.610662-18.35095-17.146519-39.173185-17.146519-61.813834C852.144934 35.955142 858.68079 15.130861 869.291452-3.220089zM883.069247 182.221414l-11.316743 0c-169.662121 0-462.960097-0.045025-632.623241 0.317225-33.900088 0.061398-67.88511 0.257873-98.792027-20.088524l0 11.230786c0 192.980199 0.38374 341.526397-0.429789 534.508643-0.1361 33.506115 23.171746 63.352887 64.829518 63.232137 181.809789-0.452301 487.255433-0.037862 669.052942-0.037862l9.279341 0L883.069247 182.221414zM624.538099 623.045351c-14.236236 12.152784-31.42778 20.549012-51.578726 25.189705-14.394848 3.358491-35.266202 5.037736-62.615083 5.037736L389.192 653.272793l0-351.700107 126.909411 0c21.269419 0 40.101323 1.998517 56.497759 5.997598 16.391319 3.996011 30.385031 9.873882 41.983183 17.633612 11.594059 7.755638 22.270213 18.389836 32.027437 31.907711 9.753131 13.512758 17.752316 30.587646 23.990391 51.219545 6.237051 20.6319 9.355065 44.299949 9.355065 71.01131 0 31.344892-4.599761 59.21566-13.794168 83.607186C656.963603 587.337081 643.090641 607.369324 624.538099 623.045351zM622.739127 412.2893c-6.158257-18.634406-14.754029-33.466206-25.789363-44.503587-7.838525-7.838525-18.351973-13.913894-31.547507-18.232247-13.19451-4.318352-31.389918-6.477528-54.578036-6.477528l-75.090209 0L435.734012 611.770564l73.890894 0c27.668153 0 47.741327-2.399653 60.216453-7.196912 17.272385-6.716982 31.945573-19.953448 44.022633-39.70428 12.072967-19.754926 18.111496-48.021713 18.111496-84.806501C631.975489 453.511143 628.895337 430.919613 622.739127 412.2893z"  horiz-adv-x="1024" />

    
    <glyph glyph-name="email" unicode="&#58963;" d="M853.333333 554.666667 512 341.333333 170.666667 554.666667 170.666667 640 512 426.666667 853.333333 640M853.333333 725.333333 170.666667 725.333333C123.306667 725.333333 85.333333 687.36 85.333333 640L85.333333 128C85.333333 81.066667 123.733333 42.666667 170.666667 42.666667L853.333333 42.666667C900.266667 42.666667 938.666667 81.066667 938.666667 128L938.666667 640C938.666667 687.36 900.266667 725.333333 853.333333 725.333333Z"  horiz-adv-x="1024" />

    
    <glyph glyph-name="xiangmudaoqi" unicode="&#59085;" d="M510.404984-128c-280.722741 0-510.404984 229.682243-510.404984 510.404984S229.682243 892.809969 510.404984 892.809969s510.404984-229.682243 510.404985-510.404985c0-98.890966-28.71028-197.781931-82.94081-280.722741-3.190031-6.380062-12.760125-9.570093-22.330218-3.190031-6.380062 3.190031-9.570093 12.760125-3.190031 22.330218 51.040498 79.750779 79.750779 169.071651 79.750778 264.772586 0 264.772586-213.732087 478.504673-478.504672 478.504672S31.900312 647.17757 31.900312 382.404984s213.732087-478.504673 478.504672-478.504672c95.700935 0 188.211838 28.71028 267.962617 82.940809 6.380062 6.380062 15.950156 3.190031 22.330218-3.190031 6.380062-6.380062 3.190031-15.950156-3.190031-22.330218-86.130841-57.420561-185.021807-89.320872-287.102804-89.320872zM510.404984 366.454829c-9.570093 0-15.950156 6.380062-15.950155 15.950155V659.937695c0 9.570093 6.380062 15.950156 15.950155 15.950155s15.950156-6.380062 15.950156-15.950155v-277.532711c0-9.570093-6.380062-15.950156-15.950156-15.950155zM708.186916 171.862928c-3.190031 0-6.380062 0-9.570094 3.190032l-197.781931 197.781931c-6.380062 6.380062-6.380062 15.950156 0 22.330218s15.950156 6.380062 22.330218 0l197.781931-197.781931c6.380062-6.380062 6.380062-15.950156 0-22.330218-6.380062-3.190031-9.570093-3.190031-12.760124-3.190032z"  horiz-adv-x="1024" />

    
    <glyph glyph-name="yulan" unicode="&#58978;" d="M512 637.240889c176.696889 0 300.373333-103.651556 371.541333-253.212445H981.333333C906.154667 569.543111 724.48 728.974222 512 728.974222c-212.48 0-394.154667-159.431111-469.333333-344.945778h97.792C211.655111 533.617778 335.303111 637.240889 512 637.240889z m0-506.453333c-176.668444 0-300.344889 103.651556-371.512889 253.240888H42.666667c75.178667-185.571556 256.824889-345.002667 469.333333-345.002666s394.154667 159.402667 469.333333 345.002666h-97.792c-71.196444-149.617778-194.844444-253.240889-371.541333-253.240888zM512 384m-128 0a128 128 0 1 1 256 0 128 128 0 1 1-256 0Z"  horiz-adv-x="1024" />

    
    <glyph glyph-name="gaojingyichuli" unicode="&#58917;" d="M838.412 370.71299999999997L657.943 208.42700000000002a17.653 17.653 0 0 0-11.825-4.54c-4.55 0-9.081 1.749-12.524 5.193L517.661 325.00800000000004c-6.915 6.9-6.915 18.119 0 25.025 6.914 6.914 18.124 6.914 25.038 0L646.77 245.98000000000002l167.986 151.05c7.255 6.543 18.464 5.954 24.984-1.318 6.533-7.26 5.937-18.439-1.328-24.999zM679.924 48.32899999999995c-71.863 0-139.424 27.984-190.237 78.799-50.813 50.813-78.797 118.374-78.797 190.236 0 71.863 27.984 139.425 78.797 190.239 50.813 50.814 118.374 78.799 190.237 78.799s139.425-27.985 190.239-78.799c50.814-50.814 78.8-118.375 78.8-190.239 0-71.861-27.985-139.422-78.8-190.236s-118.376-78.799-190.239-78.799z m0 491.675c-122.762 0-222.636-99.875-222.636-222.64 0-122.763 99.874-222.637 222.636-222.637 122.765 0 222.641 99.874 222.641 222.637-0.001 122.764-99.877 222.64-222.641 222.64zM475.191-9.859000000000037c-25.434 0-46.54 16.819-54.346 39.707h-59.956c8.926-55.185 56.707-97.791 114.297-97.791 57.613 0 105.384 42.62 114.31 97.791h-59.945c-7.817-22.888-28.913-39.707-54.36-39.707zM302.501 558.11c-23.521-31.324-35.95-68.574-35.95-107.804v-163.365c0-9.017 7.304-16.339 16.344-16.339 9.035 0 16.334 7.322 16.334 16.339V450.306c0 32.107 10.164 62.583 29.38 88.184 5.456 7.25 3.992 17.468-3.194 22.864-7.272 5.428-17.495 3.924-22.914-3.244zM451.244 79.34500000000003c0 16.05-12.986 29.035-29.04 29.035H164.733c22.864 31.65 46.398 76.132 49.924 128.207 3.117 45.838 2.492 120.76 2.035 175.503l-0.286 41.863c0 71.528 30.35 139.766 83.328 187.239 51.451 46.181 116.966 67.504 185.376 60.191 54.907-5.899 104.886-31.6 144.482-74.197 10.943-11.853 29.321-12.474 41.007-1.531 11.799 10.897 12.475 29.275 1.532 41.011-37.518 40.417-84.479 68.836-135.231 83.213v4.201c0 43.621-34.944 79.077-77.944 79.077s-77.939-35.456-77.939-79.077v-3.987c-43.802-12.012-84.718-33.911-120.087-65.67-65.23-58.492-102.603-142.498-102.603-230.475l0.29-42.375c0.453-53.774 1.069-127.405-1.93-171.021-5.284-78.279-74.818-138.467-75.502-139.092-9.302-7.884-12.646-20.766-8.45-32.166 4.2-11.409 15.088-19.003 27.232-19.003h322.242c16.049 0.005 29.035 12.996 29.035 29.054z m7.721 695.714c8.84 0 16.239-6.565 18.713-15.179-12.592 0.779-25.066 0.807-37.417 0.041 2.482 8.595 9.868 15.138 18.704 15.138z"  horiz-adv-x="1024" />

    
    <glyph glyph-name="tongjifenxi" unicode="&#58910;" d="M998.4 96H0v-128H1001.6c16 0 22.4 3.2 22.4 19.2 0 25.6-3.2 54.4 0 83.2 0 22.4-6.4 25.6-25.6 25.6zM704 480v-297.6c0-16 3.2-25.6 22.4-22.4 25.6 0 54.4 3.2 80 0 19.2 0 28.8 3.2 28.8 25.6v227.2V774.4c-3.2 19.2-6.4 25.6-25.6 25.6-25.6-3.2-54.4-3.2-83.2 0-19.2 0-22.4-6.4-22.4-25.6V480zM320 384v-204.8c0-16 3.2-22.4 22.4-22.4h89.6c12.8 0 19.2 3.2 19.2 16V585.6c-3.2 19.2-6.4 22.4-19.2 22.4h-89.6c-19.2 0-22.4-3.2-22.4-19.2V384zM531.2 160h89.6c16 0 19.2 3.2 19.2 19.2v105.6 112c0 12.8-3.2 19.2-16 16h-92.8c-12.8 0-19.2-3.2-16-16v-220.8c-3.2-12.8 3.2-16 16-16zM128 176c0-12.8 3.2-16 16-16h96c12.8 0 16 3.2 16 16V256v83.2c0 9.6-3.2 12.8-16 12.8h-96c-12.8 0-16-3.2-16-16v-160z"  horiz-adv-x="1024" />

    
    <glyph glyph-name="leibie" unicode="&#58898;" d="M812.032 4.096H632.832a81.92 81.92 0 0 0-81.92 81.92V265.216a81.92 81.92 0 0 0 81.92 81.92h179.2a81.92 81.92 0 0 0 81.92-81.92v-179.2a81.92 81.92 0 0 0-81.92-81.92z m36.864 262.144a35.84 35.84 0 0 1-35.84 35.84H631.808a35.84 35.84 0 0 1-35.84-35.84v-181.248a35.84 35.84 0 0 1 35.84-35.84h181.248a35.84 35.84 0 0 1 35.84 35.84V266.24z m-36.864 153.6H632.832a81.92 81.92 0 0 0-81.92 81.92V680.96a81.92 81.92 0 0 0 81.92 81.92h179.2a81.92 81.92 0 0 0 81.92-81.92v-179.2a81.92 81.92 0 0 0-81.92-81.92z m36.864 262.144a35.84 35.84 0 0 1-35.84 35.84H631.808a35.84 35.84 0 0 1-35.84-35.84v-181.248a35.84 35.84 0 0 1 35.84-35.84h181.248a35.84 35.84 0 0 1 35.84 35.84V681.984zM390.144 4.096H210.944a81.92 81.92 0 0 0-81.92 81.92V265.216a81.92 81.92 0 0 0 81.92 81.92h179.2a81.92 81.92 0 0 0 81.92-81.92v-179.2a81.92 81.92 0 0 0-81.92-81.92z m36.864 262.144a35.84 35.84 0 0 1-35.84 35.84H209.92a35.84 35.84 0 0 1-35.84-35.84v-181.248a35.84 35.84 0 0 1 35.84-35.84h181.248a35.84 35.84 0 0 1 35.84 35.84V266.24z m-36.864 153.6H210.944a81.92 81.92 0 0 0-81.92 81.92V680.96a81.92 81.92 0 0 0 81.92 81.92h179.2a81.92 81.92 0 0 0 81.92-81.92v-179.2a81.92 81.92 0 0 0-81.92-81.92z m36.864 262.144a35.84 35.84 0 0 1-35.84 35.84H209.92a35.84 35.84 0 0 1-35.84-35.84v-181.248a35.84 35.84 0 0 1 35.84-35.84h181.248a35.84 35.84 0 0 1 35.84 35.84V681.984z"  horiz-adv-x="1024" />

    
    <glyph glyph-name="kaiqi" unicode="&#58998;" d="M512-123.367c-236.308 0-440.181 176.072-472.615 410.063-18.534 145.955 20.851 278.009 120.471 389.213 13.9 16.217 27.801 23.167 39.385 23.167 9.267 0 16.217-4.633 23.167-11.584 25.484-27.801 4.633-50.968-6.95-64.869-152.905-173.756-139.005-419.33 32.434-572.235 71.819-64.869 166.805-99.62 264.109-99.62 106.57 0 208.507 41.701 282.643 115.837 150.588 150.588 159.855 391.529 18.534 549.068l-13.9 13.9c-11.584 11.584-16.217 23.167-16.217 34.751 0 9.267 4.633 18.534 13.9 25.484 6.95 6.95 16.217 9.267 23.167 9.267 13.9 0 27.801-11.584 34.751-18.534 53.285-55.602 83.403-118.154 106.57-185.339 13.9-46.335 23.167-169.122 23.167-183.023-2.317-76.452-30.118-152.905-69.502-217.774-44.018-67.186-104.253-125.104-173.756-164.489-64.869-34.751-139.005-55.602-213.14-57.919-2.317 4.633-9.267 4.633-16.217 4.633zM509.683 402.534c-37.068 2.317-37.068 34.751-37.068 50.968v391.529c0 37.068 18.534 50.968 37.068 50.968 2.317 0 6.95 0 11.584-2.317 25.484-6.95 30.118-27.801 30.118-46.335v-393.846c0-41.701-18.534-50.968-34.751-50.968h-6.95z"  horiz-adv-x="1024" />

    
    <glyph glyph-name="systemmenu" unicode="&#58905;" d="M914.033778-72.07822199999998H109.966222a53.646222 53.646222 0 0 0-53.589333 53.646222V786.432a53.589333 53.589333 0 0 0 53.589333 53.646222h804.067556a53.646222 53.646222 0 0 0 53.589333-53.646222v-804.864a53.646222 53.646222 0 0 0-53.589333-53.646222zM284.444444 611.555556a56.888889 56.888889 0 1 1 56.888889-56.888889 56.888889 56.888889 0 0 1-56.888889 56.888889z m0-170.666667a56.888889 56.888889 0 1 1 56.888889-56.888889 56.888889 56.888889 0 0 1-56.888889 56.888889z m0-170.666667a56.888889 56.888889 0 1 1 56.888889-56.888889 56.888889 56.888889 0 0 1-56.888889 56.888889z m455.111112 341.333334H455.111111a56.888889 56.888889 0 0 1 0-113.777778h284.444445a56.888889 56.888889 0 0 1 0 113.777778z m0-170.666667H455.111111a56.888889 56.888889 0 0 1 0-113.777778h284.444445a56.888889 56.888889 0 0 1 0 113.777778z m0-170.666667H455.111111a56.888889 56.888889 0 0 1 0-113.777778h284.444445a56.888889 56.888889 0 0 1 0 113.777778z"  horiz-adv-x="1024" />

    
    <glyph glyph-name="xinxi" unicode="&#58897;" d="M529.83536592 834C271.81857237 834 62.02249122 654.07197099 62.02249122 431.99580205c0-131.97720938 47.99580205-239.97900849 143.94242284-317.97780908v-132.02219092c0-35.98560615 12.0101959-47.99580205 30.00299854-47.99580205a45.92662911 45.92662911 0 0 1 30.00299941 12.0101959l143.94242286 84.02638975a812.82486973 812.82486973 0 0 1 119.92203105-12.05517833c257.97181113 0 431.82726943 191.98320645 431.82726944 413.83446592S746.01889209 834 529.83536592 834z m0-755.96761318c-24.0203918 0-83.98140732 5.98260674-107.95681758 5.98260761l-23.97540939 5.98260674-17.9928035-12.01019589-107.9568167-60.00599796v125.94962022l-23.97541026 17.99280264c-77.99880058 65.98860469-120.01199502 161.93522549-120.01199501 269.89204307 0 191.98320645 179.92802901 341.86325449 407.98680556 341.86325537 173.99040381 0 372.00119942-143.94242285 372.00119942-341.86325537-5.98260674-203.81347442-167.96281465-353.82846885-378.11875254-353.82846797zM302.00149971 479.99160323a53.97840878 53.97840878 0 1 1 38.18972372-15.83366661 54.60815654 54.60815654 0 0 1-38.18972372 15.83366661z m209.97600907 0a53.97840878 53.97840878 0 1 1 38.18972461-15.83366661A54.60815654 54.60815654 0 0 1 511.84256329 479.99160323z m209.97600997 0a53.97840878 53.97840878 0 1 1 38.18972372-15.83366661 54.60815654 54.60815654 0 0 1-38.14474218 15.83366661z"  horiz-adv-x="1024" />

    
    <glyph glyph-name="weixin" unicode="&#59322;" d="M236.24 572.231c0-24.005 19.32-43.325 43.325-43.325s43.326 19.32 43.326 43.325c0 24.005-19.321 43.325-43.326 43.325-24.004 0-43.325-19.32-43.325-43.325z m336.064-223.067c0-18.735 15.223-33.958 33.958-33.958s33.958 15.223 33.958 33.958-15.223 33.958-33.958 33.958-33.958-15.223-33.958-33.958zM456.38 572.231c0-24.005 19.32-43.325 43.325-43.325 24.005 0 43.325 19.32 43.325 43.325 0 24.005-19.32 43.325-43.325 43.325-24.005 0-43.325-19.32-43.325-43.325zM858.017 896H165.983C74.648 896 0.293 821.644 0.293 729.724v-690.863c0-91.92 74.355-166.276 165.69-166.276h692.034c91.335 0 165.69 74.356 165.69 166.276V729.724C1023.707 821.06 949.352 896 858.017 896zM384.366 209.82c-38.642 0-69.672 8.197-108.899 15.808L167.154 171.18l31.03 93.09C120.316 318.72 74.063 388.978 74.063 473.872c0 147.54 139.929 264.05 310.303 264.05 152.81 0 286.298-93.09 313.23-217.798a255.341 255.341 0 0 1-29.859 1.757c-147.54 0-264.05-110.07-264.05-245.315 0-22.834 3.513-44.496 9.367-64.988-9.367-1.171-18.735-1.757-28.688-1.757z m457.843-108.313l23.42-77.283-84.895 46.838c-31.03-7.61-62.06-15.808-93.09-15.808-147.541 0-264.051 100.703-264.051 225.41 0 124.12 116.51 225.408 264.05 225.408 139.344 0 263.465-101.288 263.465-225.409-0.585-70.843-46.838-132.903-108.899-179.156zM741.507 349.164c0-18.735 15.223-33.958 33.958-33.958s33.958 15.223 33.958 33.958-15.223 33.958-33.958 33.958c-19.32 0-33.958-15.223-33.958-33.958z"  horiz-adv-x="1024" />

    
    <glyph glyph-name="caidanguanli" unicode="&#59328;" d="M1003.162 34.782l-52.054 35.686c0 6.69 2.27 13.38 2.27 22.306s0 15.6-2.27 22.307l47.53 37.905c4.524 4.471 4.524 8.908 2.254 13.38l-45.261 78.029c-2.253 2.235-6.776 4.471-13.568 2.235l-56.576-22.306c-11.315 8.91-24.9 15.616-38.485 22.306l-9.046 57.976c2.253 6.673-4.522 11.127-9.062 11.127h-90.539c-4.522 0-11.315-4.454-11.315-8.908l-9.045-60.195c-13.585-4.454-24.9-13.38-38.469-22.306l-54.34 22.306c-6.775 2.236-11.298 0-15.838-4.454l-45.26-78.046c-2.27-2.236 0-8.909 4.54-13.38l47.513-35.67c0-6.707-2.253-13.38-2.253-22.306s0-15.616 2.253-22.306l-47.514-37.922c-4.54-4.454-4.54-8.909-2.27-13.363l45.261-78.046c2.27-2.236 6.776-4.454 13.568-2.236l56.576 22.306c11.315-8.908 24.9-15.598 38.485-22.306l9.046-57.958c0-4.472 4.54-8.909 11.315-8.909h90.539c4.522 0 11.315 4.455 11.315 8.909l9.045 57.958c13.585 6.708 27.153 13.38 38.468 22.306l56.576-22.306c4.54-2.218 11.316 0 13.586 4.472l45.26 78.029c2.304 4.471 2.304 11.144-2.235 13.38z m-219.529-20.07c-43.008 0-79.223 35.686-79.223 78.045s36.215 78.03 79.223 78.03 79.224-35.67 79.224-78.03-36.216-78.046-79.224-78.046z m-288.7 79.155c0 150.818 122.249 273.066 273.067 273.066 11.588 0 22.938-0.955 34.133-2.355V810.667c0 28.28-22.92 51.2-51.2 51.2H68.267c-28.28 0-51.2-22.92-51.2-51.2v-853.334c0-28.28 22.92-51.2 51.2-51.2h501.777c-46.439 48.948-75.11 114.927-75.11 187.734zM102.4 759.467h614.4v-51.2H102.4v51.2z m0-221.867h580.267v-51.2H102.4v51.2z m0-204.8h443.733v-51.2H102.4v51.2z m375.467-256H102.4V128h375.467v-51.2z"  horiz-adv-x="1024" />

    
    <glyph glyph-name="lingdang" unicode="&#59584;" d="M512-64c49.6 0 88 38.4 88 88H424c0-49.6 38.4-88 88-88z m288.8 286.4V451.2c0 137.6-97.6 252.8-224.8 283.2v28.8c0 32-17.6 60.8-48 67.2-44 10.4-80-23.2-80-66.4v-30.4C320.8 704 223.2 588.8 223.2 451.2v-228.8L136 132.79999999999995v-44.8h752v44.8l-87.2 89.6z"  horiz-adv-x="1024" />

    
    <glyph glyph-name="jiankongquyu" unicode="&#58899;" d="M464.307782-2.951789zM224.064549 204.154622l190.065371-133.569426-36.030487-51.26947L188.032673 152.885152l36.031876 51.26947zM432.161142 718.486968l52.055873-34.95092-271.314937-404.101203-52.056336 34.951384 271.3154 404.100739zM504.814466 655.44091c-63.41425 0-114.957433 51.542257-114.957433 114.958822 0 63.41425 51.583939 114.957433 114.957433 114.957433 63.372568 0 114.957433-51.543183 114.957433-114.957433 0-63.415177-51.543183-114.958823-114.957433-114.958822z m0 167.211527c-28.801418 0-52.252705-23.451287-52.252705-52.252705 0-28.803271 23.451287-52.254558 52.252705-52.254557 28.801881 0 52.251779 23.451287 52.251779 52.254557 0 28.801418-23.449434 52.252705-52.251779 52.252705zM139.040436 113.426078C75.626185 113.426078 24.083002 164.968798 24.083002 228.383512c0 63.417029 51.543183 114.958823 114.957434 114.958822 63.415177 0 114.957433-51.541793 114.957433-114.958822 0-63.414714-51.542257-114.957433-114.957433-114.957434z m0 167.211991c-28.801418 0-52.252705-23.451287-52.252705-52.254557 0-28.800955 23.451287-52.251779 52.252705-52.251779 28.801881 0 52.253168 23.451287 52.253168 52.251779 0 28.803271-23.410068 52.254558-52.253168 52.254557zM464.307782-117.909222c-63.41425 0-114.957433 51.54272-114.957433 114.957433 0 63.41564 51.543183 114.958823 114.957433 114.958823 63.415177 0 114.957896-51.543183 114.957896-114.958823 0-63.414714-51.54272-114.957433-114.957896-114.957433z m0 167.210601c-28.801418 0-52.254094-23.451287-52.254095-52.253168s23.452676-52.253168 52.254095-52.253168c28.802345 0 52.252705 23.451287 52.252705 52.253168s-23.45036 52.253168-52.252705 52.253168zM458.245812 701.006413zM550.840325-22.140384l-7.983978 62.203153 62.158692 7.983979 7.983979-62.201764-62.158693-7.985368z m124.403528 16.011491l-7.983978 62.203617 62.161934 7.940907 7.983515-62.200838-62.161471-7.943686z m124.40677 15.967957l-7.987221 62.203154 62.161935 7.983978 7.983515-62.201764-62.158229-7.985368z m124.361845 15.969347l-2.466655 19.104768-17.011862 28.842637 12.374032 7.315675-0.87903 6.938683 16.219439 2.091517 26.376909 15.507601 41.25974-70.101915-75.872573-9.698966z m-51.250018 101.998925l-31.854865 54.050594 54.05152 31.853476 31.855328-54.050594-54.051983-31.853476z m-63.665733 108.059042l-31.852086 54.051521 54.049204 31.853938 31.854866-54.051983-54.051984-31.853476z m-63.665269 108.059969l-31.813183 54.009375 54.051983 31.812257 31.81272-54.009838-54.05152-31.811794z m-63.665733 108.060895l-31.810867 54.009375 54.049204 31.81272 31.813183-54.008449-54.05152-31.813646z m-63.623587 108.060895l-31.813183 54.009375 54.05152 31.811794L672.193648 591.859468l-54.05152-31.811331z m-63.665269 108.059042l-16.638113 28.258625 54.051983 31.853476 16.63765-28.258625-54.05152-31.853476z"  horiz-adv-x="1024" />

    
    <glyph glyph-name="xunchajiancha" unicode="&#58911;" d="M93.94087 494.792348h170.918956a386.671304 386.671304 0 0 0 112.64 138.774261 397.467826 397.467826 0 0 0 55.318261 35.84V835.161043A60.571826 60.571826 0 0 1 372.268522 896H93.94087A60.772174 60.772174 0 0 1 33.391304 835.161043V555.631304a60.772174 60.772174 0 0 1 60.549566-60.838956z m782.848 121.010087V835.161043A60.772174 60.772174 0 0 1 816.239304 896H537.889391a60.772174 60.772174 0 0 1-60.549565-60.838957v-145.363478a381.373217 381.373217 0 0 0 139.130435 25.644522c97.569391 0 189.217391-35.506087 260.296348-99.639652zM228.530087 372.424348c3.272348 26.980174 9.48313 52.98087 17.986783 77.957565H93.96313A60.772174 60.772174 0 0 1 33.391304 389.565217v-279.552a60.772174 60.772174 0 0 1 60.549566-60.838956h240.973913c-9.817043 10.195478-19.300174 21.370435-28.16 32.879304a391.524174 391.524174 0 0 0-78.224696 290.393044z m751.37113-417.970087l-106.073043 138.462609a49.196522 49.196522 0 0 1 2.938435 17.074087v14.803478c86.461217 115.088696 89.711304 277.882435-1.958957 397.267478-1.647304 2.29287-3.294609 4.274087-4.897391 6.233044-96.278261 119.05113-259.650783 153.266087-392.592696 89.444173-15.36-6.90087-30.118957-15.449043-44.521739-25.644521-5.231304-3.272348-10.128696-6.90087-15.070609-10.863305a325.498435 325.498435 0 0 1-78.246956-86.483478c-8.525913-14.135652-16.384-28.93913-22.928696-44.410435-44.521739-105.22713-32.723478-231.201391 41.917218-328.192a322.56 322.56 0 0 1 55.31826-56.564869c105.093565-83.856696 253.417739-95.053913 370.643479-24.019479l114.910608-149.637565a50.554435 50.554435 0 0 1 71.368348-9.216 51.066435 51.066435 0 0 1 9.193739 71.746783z m-210.164869 168.047304a249.677913 249.677913 0 0 0-292.374261-9.861565 232.358957 232.358957 0 0 0-44.521739 38.15513 188.727652 188.727652 0 0 0-14.736696 17.430261c-63.198609 82.209391-67.784348 191.065043-20.613565 276.257392a254.419478 254.419478 0 0 0 66.114783 76.933565 249.544348 249.544348 0 0 0 335.582608-26.624 231.66887 231.66887 0 0 0 35.038609-47.682783c61.551304-107.564522 36.018087-246.650435-64.489739-324.608z"  horiz-adv-x="1024" />

    
    <glyph glyph-name="jichuxinxi" unicode="&#58994;" d="M210.823529 56.81694100000004V775.529412H146.040471C114.672941 775.529412 90.352941 743.002353 90.352941 715.023059v-787.681883C90.352941-91.03058799999997 100.020706-128 146.040471-128h621.492705C782.351059-128 813.176471-112.94117600000004 813.176471-72.64376500000003V-22.588235000000054H290.590118C245.955765-22.588235000000054 210.823529 23.22070599999995 210.823529 56.81694100000004zM786.808471 715.294118h160.015058L768 896v-162.590118c0-12.182588 6.144-18.115765 18.808471-18.115764zM786.808471 700.2352940000001C765.906824 700.2352940000001 752.941176 712.944941 752.941176 733.409882V896H275.531294C246.287059 896 225.882353 874.556235 225.882353 844.227765L226.123294 775.529412H225.882353v-718.712471C225.882353 30.750118000000043 258.514824-7.529411999999979 290.590118-7.529411999999979H881.935059C912.384-7.529411999999979 948.705882 27.798587999999995 948.705882 56.81694100000004V700.2352940000001H786.808471zM813.176471 203.29411800000003H378.157176c-5.270588-8.704-14.757647-14.592-25.690352-14.592a30.117647 30.117647 0 0 0 0 60.235294c11.309176 0 21.052235-6.309647 26.202352-15.525647H813.176471c8.282353 0 15.058824-6.776471 15.058823-15.058824s-6.776471-15.058824-15.058823-15.058823z m0 225.882353H378.157176c-5.270588-8.704-14.757647-14.592-25.690352-14.592a30.117647 30.117647 0 0 0 0 60.235294c11.309176 0 21.052235-6.309647 26.202352-15.525647H813.176471c8.282353 0 15.058824-6.776471 15.058823-15.058824s-6.776471-15.058824-15.058823-15.058823z m0 210.823529H378.157176c-5.270588-8.704-14.757647-14.592-25.690352-14.592a30.117647 30.117647 0 0 0 0 60.235294c11.309176 0 21.052235-6.309647 26.202352-15.525647H813.176471c8.282353 0 15.058824-6.776471 15.058823-15.058823s-6.776471-15.058824-15.058823-15.058824z"  horiz-adv-x="1024" />

    
    <glyph glyph-name="zhanghuxinxi" unicode="&#58934;" d="M870.071 679.958c18.748 0 34-15.252 34-34v-523.916c0-18.748-15.252-34-34-34h-716.142c-18.748 0-34 15.252-34 34v523.916c0 18.748 15.252 34 34 34h716.142M870.071 735.958h-716.142c-49.706 0-90-40.294-90-90v-523.916c0-49.706 40.294-90 90-90h716.143c49.706 0 90 40.294 90 90v523.916c-0.001 49.705-40.295 90-90.001 90zM478.953 373.398c20.776 21.575 33.556 50.905 33.556 83.223 0 66.274-53.726 120-120 120s-120-53.726-120-120c0-32.318 12.78-61.648 33.556-83.223-67.175-32.247-113.556-100.907-113.556-180.401h56c0 38.464 14.979 74.625 42.177 101.823 25.543 25.543 58.993 40.307 94.831 42.009 2.314-0.133 4.644-0.208 6.992-0.208s4.678 0.075 6.992 0.208c35.838-1.702 69.288-16.465 94.831-42.009 27.198-27.198 42.177-63.36 42.177-101.823h56c0 79.494-46.381 148.153-113.556 180.401zM328.509 456.621c0 35.29 28.71 64 64 64s64-28.71 64-64c0-33.3-25.568-60.729-58.102-63.717-1.96 0.057-3.925 0.093-5.898 0.093s-3.938-0.036-5.898-0.093c-32.534 2.988-58.102 30.417-58.102 63.717zM832.47 548c0-15.4-12.6-28-28-28h-183.961c-15.4 0-28 12.6-28 28s12.6 28 28 28h183.961c15.4 0 28-12.6 28-28zM832.47 416.018c0-15.4-12.6-28-28-28h-124.743c-15.4 0-28 12.6-28 28s12.6 28 28 28h124.743c15.4 0 28-12.6 28-28zM832.47 284.035c0-15.4-12.6-28-28-28h-70.135c-15.4 0-28 12.6-28 28s12.6 28 28 28h70.135c15.4 0 28-12.6 28-28z"  horiz-adv-x="1024" />

    
    <glyph glyph-name="zhanghaoshezhi" unicode="&#58920;" d="M427.467 398.078c101.905 0 205.665 100.23 205.665 206.317 0 106.052-98.749 214.012-200.704 214.012-101.862 0-203.2-110.573-203.2-216.596 0-106.095 96.334-203.733 198.239-203.733zM472.3 353.903H268.48c-50.982 0-127.417-26.563-152.883-106.091-25.47-79.56-25.47-79.56-50.977-159.087-12.774-39.972 173.874-60.301 359.512-59.667 61.602 0.218 19.668 50.778 19.668 114.988 0.001 146.246 124.83 209.857 28.5 209.857zM472.3 353.903zM945.81 229.139h-42.73c-3.932 14.097-9.486 27.514-16.493 39.993l30.169 30.169a14.181 14.181 0 0 1 0 20.082l-48.715 48.715c-2.734 2.734-6.406 4.102-9.999 4.102-3.672 0-7.261-1.368-9.995-4.102l-30.169-30.169c-12.479 7.007-25.896 12.562-39.998 16.493v42.731c0 7.778-6.409 14.189-14.185 14.189H694.81c-7.775 0-14.186-6.41-14.186-14.189v-42.731c-14.101-3.931-27.518-9.486-39.996-16.493l-30.166 30.081c-2.737 2.738-6.409 4.102-9.998 4.102-3.59 0-7.267-1.364-10.001-4.102l-48.714-48.71c-5.467-5.556-5.467-14.528 0-20.082l30.169-30.169c-7.007-12.479-12.561-25.896-16.492-39.997h-42.731c-7.779 0-14.186-6.41-14.186-14.185v-68.886c0-7.774 6.406-14.185 14.186-14.185h42.731c3.931-14.102 9.485-27.52 16.492-39.998l-30.169-30.164c-5.467-5.554-5.467-14.532 0-20.087l48.715-48.711c2.734-2.733 6.41-4.102 10.001-4.102 3.589 0 7.261 1.369 9.998 4.102l30.166 30.17c12.478-7.012 25.895-12.566 39.996-16.498v-42.73c0-7.774 6.41-14.185 14.186-14.185h68.884c7.776 0 14.185 6.41 14.185 14.185v42.73c14.102 3.932 27.519 9.486 39.998 16.498l30.169-30.17c2.734-2.733 6.405-4.102 9.995-4.102 3.676 0 7.265 1.369 9.999 4.102l48.715 48.711c5.556 5.556 5.556 14.533 0 20.087l-30.169 30.164c7.007 12.479 12.561 25.896 16.493 39.998h42.73c7.779 0 14.19 6.41 14.19 14.185v68.886c0 7.862-6.411 14.272-14.19 14.272m-95.373-82.556c-2.733-9.83-6.581-19.231-11.451-27.862l-17.349-30.682-30.682-17.349c-8.632-4.87-17.946-8.714-27.863-11.452l-33.925-9.485-33.929 9.485c-9.828 2.738-19.23 6.581-27.86 11.452l-30.683 17.349-17.348 30.682c-4.87 8.63-8.715 17.944-11.452 27.862l-9.399 33.929 9.486 33.925c2.733 9.828 6.581 19.23 11.452 27.86l17.348 30.683 30.683 17.349c8.63 4.869 17.944 8.718 27.856 11.451l33.93 9.486 33.929-9.486c9.828-2.733 19.227-6.581 27.862-11.451l30.678-17.349 17.349-30.683c4.873-8.63 8.718-17.944 11.45-27.86l9.486-33.925-9.568-33.929m0 0zM729.168 266.996c-47.775 0-86.576-38.713-86.576-86.573 0-47.771 38.717-86.57 86.576-86.57 47.773 0 86.573 38.712 86.573 86.57 0 47.86-38.717 86.573-86.573 86.573m0-118.364c-17.606 0-31.878 14.272-31.878 31.88 0 17.603 14.272 31.876 31.878 31.876 17.604 0 31.876-14.273 31.876-31.876 0-17.608-14.272-31.88-31.876-31.88m0 0z"  horiz-adv-x="1024" />

    
    <glyph glyph-name="update" unicode="&#59100;" d="M512 821l-403.1-423.1h253.1v-270.9h300v270.9h253.1l-403.1 423.1zM612 447.9v-270.9h-200v270.9h-186.4l286.4 300.6 286.4-300.6h-186.4zM362 87h300v-50h-300zM362-3h300v-50h-300z"  horiz-adv-x="1024" />

    
    <glyph glyph-name="bofangqi-suoping" unicode="&#59033;" d="M791.272727 477.090909h-23.272727v69.818182c0 141.963636-116.363636 256-256 256-141.963636 0-256-114.036364-256-256v-69.818182h-23.272727c-51.2 0-93.090909-41.890909-93.090909-93.090909v-325.818182c0-51.2 41.890909-93.090909 93.090909-93.090909h558.545454c51.2 0 93.090909 41.890909 93.090909 93.090909V384c0 51.2-41.890909 93.090909-93.090909 93.090909z m-488.727272 69.818182c0 116.363636 93.090909 209.454545 209.454545 209.454545s209.454545-93.090909 209.454545-209.454545v-69.818182H302.545455v69.818182z m535.272727-488.727273c0-25.6-20.945455-46.545455-46.545455-46.545454H232.727273c-25.6 0-46.545455 20.945455-46.545455 46.545454V384c0 25.6 20.945455 46.545455 46.545455 46.545455h558.545454c25.6 0 46.545455-20.945455 46.545455-46.545455v-325.818182zM512 302.545455c-25.6 0-46.545455-20.945455-46.545455-46.545455 0-16.290909 9.309091-32.581818 23.272728-39.563636v-53.527273c0-11.636364 9.309091-23.272727 23.272727-23.272727s23.272727 11.636364 23.272727 23.272727v53.527273c13.963636 6.981818 23.272727 23.272727 23.272728 39.563636 0 25.6-20.945455 46.545455-46.545455 46.545455z"  horiz-adv-x="1024" />

    
    <glyph glyph-name="jianguan" unicode="&#58895;" d="M512-64S101.3 68.7 101.3 302.6V696.3L512 832l410.7-135.7v-393.6C922.7 68.8 512-64 512-64m0 694.4c-80 0-144.9-60.1-144.9-134.4 0-74.2 64.9-134.4 144.9-134.4S657 421.8 657 496s-65 134.4-145 134.4m48.3-336h-96.7c-78.2 0-147.6-34.7-191.8-88.2C354.8 111 512 58.7 512 58.7S669.2 111 752.1 206.3c-44.1 53.5-113.5 88.1-191.8 88.1m0 0z"  horiz-adv-x="1024" />

    
    <glyph glyph-name="zhanghao" unicode="&#59021;" d="M964.608 535.04h-334.336s30.72 74.24 0 130.56h338.944s105.472-68.608-4.608-130.56z m6.656-231.936h-425.472l66.048 130.56 359.424 1.024c96.768-72.192 0-131.584 0-131.584z m-382.464-105.984s116.736-26.112 153.088-77.824v-114.688H5.12v102.4s19.456 63.488 168.448 90.112c93.696 16.896 112.64 58.368 106.496 115.712-2.048 16.896-106.496 108.032-88.064 317.44 0 0 17.408 128.512 146.432 134.144h85.504s117.76-13.312 142.848-136.192c0 0 6.656-207.36-94.72-314.368 0 0.512-5.632-82.944 116.736-116.736z m379.392 6.656c112.128-76.8 2.048-133.12 2.048-133.12h-165.888v48.64c5.632 51.712-28.672 82.432-28.672 82.432l192.512 2.048z"  horiz-adv-x="1024" />

    
    <glyph glyph-name="ft-firetruck" unicode="&#59189;" d="M576 672h-128V736h128V800H0v-64h192v-64H0v-64h576V672z m-192 0H256V736h128v-64z m512-320l-192 192V608h-64v-64l-585.6-6.4c-32 0-54.4-25.6-54.4-54.4V96c0-35.2 28.8-64 64-64h3.2c-9.6 51.2 3.2 105.6 44.8 147.2 16 16 38.4 28.8 64 38.4 108.8 32 208-48 208-153.6 0-9.6 0-22.4-3.2-32h262.4c-9.6 51.2 3.2 105.6 44.8 147.2 16 16 38.4 28.8 64 35.2 108.8 32 208-51.2 208-153.6 0-9.6 0-22.4-3.2-32H1024v204.8c0 22.4-12.8 41.6-28.8 54.4L896 352zM256 352H128v128h128v-128z m192 0h-128v128h128v-128z m128 0v128h64l128-128h-192zM224 160c-54.4 0-96-41.6-96-96s41.6-96 96-96 96 41.6 96 96c0 51.2-41.6 96-96 96z m576 0c-54.4 0-96-41.6-96-96s41.6-96 96-96 96 41.6 96 96c0 51.2-41.6 96-96 96z"  horiz-adv-x="1024" />

    
    <glyph glyph-name="shujutongji" unicode="&#59076;" d="M310.208454-16.359748c-20.465674 0-37.145198 16.781853-37.145198 37.349855v11.358449c0 20.568002 16.679524 37.349855 37.145198 37.349855h147.352853v75.416009H189.153992c-61.806336 0-112.049565 50.24323-112.049565 112.049565v415.146198c0 61.806336 50.24323 112.049565 112.049565 112.049565h645.692016c61.806336 0 112.049565-50.24323 112.049565-112.049565v-415.146198c0-61.806336-50.24323-112.049565-112.049565-112.049565H543.312481v-75.416009h147.352853c20.465674 0 37.145198-16.781853 37.145199-37.349855v-11.358449c0-20.568002-16.679524-37.349855-37.145199-37.349855H310.208454z m-117.677626 714.763665c-16.679524 0-30.084541-13.609673-30.08454-30.084541v-407.164584c0-16.679524 13.609673-30.084541 30.08454-30.084541h637.710403c16.679524 0 30.084541 13.609673 30.084541 30.084541v407.164584c0 16.679524-13.609673 30.084541-30.084541 30.084541H192.530828zM723.410413 287.453183c-25.582093 0-46.354752 20.772659-46.354752 46.252423v46.047767c0 25.479764 20.772659 46.252423 46.354752 46.252423s46.354752-20.772659 46.354751-46.252423v-45.945439c0-25.582093-20.772659-46.354752-46.354751-46.354751z m-137.324673 0c-25.582093 0-46.354752 20.772659-46.354752 46.354751v183.167783c0 25.582093 20.772659 46.354752 46.354752 46.354752s46.354752-20.772659 46.354752-46.354752v-183.167783c0-25.479764-20.772659-46.354752-46.354752-46.354751z m-137.324673 0c-25.582093 0-46.354752 20.874988-46.354751 46.45708V471.132607c0 25.582093 20.772659 46.45708 46.354751 46.45708s46.354752-20.874988 46.354752-46.45708V333.910263c0-25.582093-20.772659-46.45708-46.354752-46.45708z m-137.324672 0c-25.582093 0-46.354752 20.772659-46.354752 46.252423v240.573998c0 25.479764 20.772659 46.252423 46.354752 46.252424s46.354752-20.772659 46.354751-46.252424v-240.47167c0-25.582093-20.772659-46.354752-46.354751-46.354751z"  horiz-adv-x="1024" />

    
    <glyph glyph-name="zaixianjianguan" unicode="&#58936;" d="M940.194373 896h-811.867007C57.616368 896 0 838.383632 0 767.672634v-576.163683c0-70.710997 57.616368-128.327366 128.327366-128.327365h811.867007c70.710997 0 128.327366 57.616368 128.327366 128.327365v576.163683c2.618926 70.710997-54.997442 128.327366-128.327366 128.327366z m57.616369-704.491049c0-31.42711-26.189258-54.997442-54.997443-54.997442H130.946292c-31.42711 0-54.997442 26.189258-54.997443 54.997442v576.163683c0 31.42711 26.189258 54.997442 54.997443 54.997443h811.867007c31.42711 0 54.997442-26.189258 54.997443-54.997443v-576.163683zM906.148338-52.051151h-204.276215v20.951407c0 18.332481-13.094629 31.42711-31.42711 31.42711H377.12532c-18.332481 0-31.42711-13.094629-31.42711-31.42711v-20.951407H144.040921c-20.951407 0-36.664962-15.713555-36.664962-36.664962S123.089514-125.381074 144.040921-125.381074h762.107417c20.951407 0 36.664962 15.713555 36.664961 36.664961s-15.713555 36.664962-36.664961 36.664962zM531.641944 576.491049c-102.138107 0-188.56266-49.759591-230.465473-78.567775-13.094629-7.856777-13.094629-28.808184 0-36.664962 41.902813-28.808184 128.327366-78.567775 230.465473-78.567775 102.138107 0 188.56266 49.759591 230.465473 78.567775 13.094629 7.856777 13.094629 28.808184 0 36.664962-39.283887 26.189258-128.327366 78.567775-230.465473 78.567775z m0-180.705883c-47.140665 0-83.805627 36.664962-83.805627 83.805627 0 47.140665 36.664962 83.805627 83.805627 83.805626 47.140665 0 83.805627-36.664962 83.805626-83.805626 0-47.140665-36.664962-83.805627-83.805626-83.805627zM531.641944 479.590793m-41.902814 0a41.902813 41.902813 0 1 1 83.805627 0 41.902813 41.902813 0 1 1-83.805627 0Z"  horiz-adv-x="1071" />

    
    <glyph glyph-name="huozaizidongbaojingkongzhiqi" unicode="&#58887;" d="M105.472 793.6a51.2 51.2 0 0 1-51.2-51.2v-716.8a51.2 51.2 0 0 1 51.2-51.2h819.2a51.2 51.2 0 0 1 51.2 51.2V742.4a51.2 51.2 0 0 1-51.2 51.2z m16.896-115.712a51.2 51.2 0 0 0 51.2 51.2h683.008a51.2 51.2 0 0 0 51.2-51.2v-335.36a51.2 51.2 0 0 0-51.2-51.2H173.568a51.2 51.2 0 0 0-51.2 51.2z m734.208-596.48a57.344 57.344 0 1 0 56.32 57.344 56.832 56.832 0 0 0-56.32-57.344zM776.704 638.976a44.032 24.576 0 1 1 88.064 0 44.032 24.576 0 1 1-88.064 0ZM646.144 638.976a44.032 24.576 0 1 1 88.064 0 44.032 24.576 0 1 1-88.064 0ZM515.584 638.976a44.032 24.576 0 1 1 88.064 0 44.032 24.576 0 1 1-88.064 0ZM776.704 552.448a44.032 24.576 0 1 1 88.064 0 44.032 24.576 0 1 1-88.064 0ZM646.144 552.448a44.032 24.576 0 1 1 88.064 0 44.032 24.576 0 1 1-88.064 0ZM515.584 552.448a44.032 24.576 0 1 1 88.064 0 44.032 24.576 0 1 1-88.064 0ZM776.704 465.408a44.032 24.576 0 1 1 88.064 0 44.032 24.576 0 1 1-88.064 0ZM646.144 465.408a44.032 24.576 0 1 1 88.064 0 44.032 24.576 0 1 1-88.064 0ZM515.584 465.408a44.032 24.576 0 1 1 88.064 0 44.032 24.576 0 1 1-88.064 0ZM776.704 378.368a44.032 24.576 0 1 1 88.064 0 44.032 24.576 0 1 1-88.064 0ZM646.144 378.368a44.032 24.576 0 1 1 88.064 0 44.032 24.576 0 1 1-88.064 0ZM515.584 378.368a44.032 24.576 0 1 1 88.064 0 44.032 24.576 0 1 1-88.064 0ZM164.864 663.552l301.568 0 0-173.568-301.568 0 0 173.568ZM466.432 378.368c0-13.312-23.04-24.576-51.2-24.576H216.064c-28.16 0-51.2 11.264-51.2 24.576s23.04 24.576 51.2 24.576h199.168c28.16 0 51.2-10.752 51.2-24.576z"  horiz-adv-x="1024" />

    
    <glyph glyph-name="xiaofangshuixiangshuichi" unicode="&#58891;" d="M943.616 742.4H563.2c-28.16 0-51.2-16.384-51.2-36.864s23.04-36.864 51.2-36.864h296.96c28.16 0 51.2-7.168 51.2-15.872v-160.256c0-28.16-8.192-47.616-18.432-43.52l-9.216 6.656a117.248 117.248 0 0 1-145.408 0 71.168 71.168 0 0 0-91.648 0 116.736 116.736 0 0 1-145.408 0A71.168 71.168 0 0 0 409.6 455.68a116.736 116.736 0 0 1-145.408 0 67.584 67.584 0 0 0-45.568-16.896 67.072 67.072 0 0 0-45.568 16.896l-12.8 9.216a72.192 72.192 0 0 0-40.96 65.536V742.4h-32.768c-17.92 0-32.256-23.04-32.256-51.2v-614.4a51.2 51.2 0 0 1 51.2-51.2h819.2a51.2 51.2 0 0 1 51.2 51.2V691.2c0 28.16-14.848 51.2-32.256 51.2zM299.52 618.496c16.384 0 29.696 8.192 29.696 36.864a78.336 78.336 0 0 1-29.696 51.2 78.336 78.336 0 0 1-29.696-51.2c0-28.16 13.312-36.864 29.696-36.864zM376.32 618.496c16.384 0 29.696 8.192 29.696 36.864a78.336 78.336 0 0 1-29.696 51.2 78.336 78.336 0 0 1-29.696-51.2c-0.512-28.16 11.776-36.864 29.696-36.864zM222.208 618.496c16.384 0 29.696 8.192 29.696 36.864a78.336 78.336 0 0 1-29.696 51.2 78.336 78.336 0 0 1-29.696-51.2c0-28.16 12.288-36.864 29.696-36.864z"  horiz-adv-x="1024" />

    
    <glyph glyph-name="yangantanceqi" unicode="&#58892;" d="M437.248 786.432zM409.6 766.976l10.752 3.072 17.408 4.096v12.8zM119.296 293.888zM131.584 296.448l-12.288-3.072 27.648-44.544a391.68 391.68 0 0 0-15.36 47.616zM904.192 303.616c0-7.68-3.584-15.36-5.632-23.552s-5.632-16.384-8.192-24.064l26.624 45.056zM230.4 113.152a397.312 397.312 0 0 0-51.2 62.464 396.288 396.288 0 0 0-34.304 73.216 391.68 391.68 0 0 0-14.848 47.616l-12.288-3.072-12.288-3.072A423.936 423.936 0 0 1 230.4 76.8l18.944-16.896 16.384 16.896-17.92 15.872c-6.144 7.68-11.776 14.336-17.408 20.48zM175.616 583.168A391.168 391.168 0 0 0 409.6 766.976l10.752 3.072 17.408 4.096v25.6L416.256 793.6a419.84 419.84 0 0 1-153.6-72.192 423.936 423.936 0 0 1-126.976-153.6l23.04-11.264c6.656 10.24 11.776 18.432 16.896 26.624zM515.072 844.8a460.8 460.8 0 1 1 460.8-460.8 460.8 460.8 0 0 1-460.8 460.8zM287.232 691.2a377.856 377.856 0 0 0 136.192 62.464l16.384 3.584v-22.528l-15.36-3.584-9.728-3.072A352.256 352.256 0 0 1 204.8 563.2c-4.608-7.68-9.216-14.848-12.8-23.04l-20.992 10.24A381.952 381.952 0 0 0 287.232 691.2z m-13.824-599.552L256 106.496a381.44 381.44 0 0 0-111.104 193.536h22.528a352.256 352.256 0 0 1 13.312-43.008 358.4 358.4 0 0 1 31.232-65.536 358.4 358.4 0 0 1 44.032-51.2c5.12-5.632 10.24-11.776 15.872-16.896l16.384-14.336z m212.992-11.264a298.496 298.496 0 0 0-159.232 64.512H486.4z m0 102.4H290.304a300.032 300.032 0 0 0-46.592 71.68H486.4z m0 105.472h-256a298.496 298.496 0 0 0-13.824 71.68H486.4z m112.128 467.456a381.44 381.44 0 0 0 256-197.12l7.168-15.36-20.992-9.728-7.168 14.336-5.12 8.704a351.744 351.744 0 0 1-209.408 169.472c-8.704 2.56-16.896 5.632-25.6 7.168z m-54.784-396.288h270.336a299.008 299.008 0 0 0-13.824-71.68h-256z m0-276.992v62.464h159.232a298.496 298.496 0 0 0-159.232-64.512z m0 102.4v71.68h243.2a300.032 300.032 0 0 0-46.592-71.68z m296.96 10.752a379.904 379.904 0 0 0-79.872-95.744l-14.848 17.408a350.72 350.72 0 0 1 31.744 31.744 358.4 358.4 0 0 1 41.472 54.784 358.4 358.4 0 0 1 29.184 65.536c0 7.168 5.632 14.336 7.68 22.016s3.584 13.824 5.12 20.992h22.528c0-7.68-3.584-14.848-5.12-22.528a382.976 382.976 0 0 0-37.888-97.792z"  horiz-adv-x="1024" />

    
    <glyph glyph-name="webicon06" unicode="&#58881;" d="M939.1976296296298 539.3445925925926L512 791.7795555555556 84.8023703703704 539.3445925925926l427.1976296296296-252.43496296296294L939.1976296296298 539.3445925925926zM512 741.2925629629628l341.7581037037037-201.94797037037037L512 337.3966222222223 170.24189629629632 539.3445925925926 512 741.2925629629628zM509.5921588148148 162.63395555555576L174.04783881481484 345.16385185185186 81.26828088888897 345.16385185185186 509.5921588148148 112.14696296296302 937.8772005925925 345.16385185185186 845.0976426666668 345.16385185185186ZM509.5921588148148 7.289362962963082L174.04783881481484 189.81925925925918 81.26828088888897 189.81925925925918 509.5921588148148-43.19762962962977 937.8772005925925 189.81925925925918 845.0976426666668 189.81925925925918Z"  horiz-adv-x="1024" />

    
    <glyph glyph-name="zuo" unicode="&#58923;" d="M126.28583984 384L897.71416016 833.99912109V-66z"  horiz-adv-x="1024" />

    
    <glyph glyph-name="you" unicode="&#58926;" d="M897.71416016 384L126.28583984-65.99912109000002V834z"  horiz-adv-x="1024" />

    
    <glyph glyph-name="faults-statistics" unicode="&#58974;" d="M1007.616 58.879999999999995L584.192 793.6a82.944 82.944 0 0 1-144.384 0L16.384 58.879999999999995a82.944 82.944 0 0 1 72.192-124.928h846.848a82.944 82.944 0 0 1 72.192 124.928z m-66.56-44.544a6.144 6.144 0 0 0-5.632-3.072H88.576a6.144 6.144 0 0 0-5.632 9.728L506.368 753.664a6.144 6.144 0 0 0 10.752 0l423.936-733.184a6.144 6.144 0 0 0 0-6.144zM473.6 548.352v-301.568a38.4 38.4 0 0 1 76.8 0V548.352a38.4 38.4 0 0 1-76.8 0zM512 113.66399999999999m-46.592 0a46.592 46.592 0 1 1 93.184 0 46.592 46.592 0 1 1-93.184 0Z"  horiz-adv-x="1024" />

    
    <glyph glyph-name="tubiao-" unicode="&#58943;" d="M726.562133 10.547199999999975h-559.786666a15.36 15.36 0 1 0 0 30.72h559.786666a15.36 15.36 0 0 0 0-30.72zM856.2688 10.547199999999975h-54.613333a15.36 15.36 0 1 0 0 30.72h54.613333a15.36 15.36 0 0 0 0-30.72zM774.3488-64.54613300000005h-406.186667a15.36 15.36 0 1 0 0 30.72h406.186667a15.36 15.36 0 0 0 0-30.72zM303.3088-64.54613300000005h-54.613333a15.36 15.36 0 1 0 0 30.72h54.613333a15.36 15.36 0 0 0 0-30.72zM508.1088 676.795733a204.8 204.8 0 1 0-204.8-204.8 205.038933 205.038933 0 0 0 204.8 204.8m0 40.96a245.76 245.76 0 1 1 245.76-245.76 245.76 245.76 0 0 1-245.76 245.76zM508.586667 553.096533a81.92 81.92 0 0 0 8.226133-163.4304 83.7632 83.7632 0 0 0-8.4992-0.443733 81.92 81.92 0 0 0-8.226133 163.4304 83.7632 83.7632 0 0 0 8.4992 0.443733m0 40.96a124.450133 124.450133 0 0 1-12.6976-0.648533 122.88 122.88 0 0 1 12.6976-245.1456 124.450133 124.450133 0 0 1 12.6976 0.648533A122.88 122.88 0 0 1 508.586667 594.056533zM740.215467 106.76906699999995h-457.386667a20.48 20.48 0 0 0 0 40.96h457.386667a20.48 20.48 0 0 0 0-40.96zM631.022933 110.18240000000003a20.48 20.48 0 0 0-17.339733 9.557333l-69.154133 109.431467a20.48 20.48 0 1 0 34.6112 21.7088l69.154133-109.226667a20.48 20.48 0 0 0-17.3056-31.4368zM387.754667 110.18240000000003a20.48 20.48 0 0 0-17.3056 31.4368L439.6032 250.88a20.48 20.48 0 1 0 34.6112-21.879467l-69.154133-109.431466a20.48 20.48 0 0 0-17.3056-9.386667zM508.1088 635.835733m-17.066667 0a17.066667 17.066667 0 1 1 34.133334 0 17.066667 17.066667 0 1 1-34.133334 0ZM898.082133 625.9712m-47.786666 0a47.786667 47.786667 0 1 1 95.573333 0 47.786667 47.786667 0 1 1-95.573333 0ZM118.135467 364.85119999999995m-29.013334 0a29.013333 29.013333 0 1 1 58.026667 0 29.013333 29.013333 0 1 1-58.026667 0ZM251.255467 805.1712m-22.186667 0a22.186667 22.186667 0 1 1 44.373333 0 22.186667 22.186667 0 1 1-44.373333 0Z"  horiz-adv-x="1024" />

    
    <glyph glyph-name="jiaoseguanli" unicode="&#58940;" d="M333.504-126.496v307.104h31.36c28.992 0 52.352 23.36 52.352 52.32v217.856c0 28.96-23.36 52.32-52.352 52.32H198.112c-28.928 0-52.288-23.36-52.288-52.32v-217.856c0-28.928 23.36-52.32 52.288-52.32h31.392v-307.104H161.792v245.504a120.416 120.416 0 0 0-83.072 113.92v217.856a119.488 119.488 0 0 0 119.392 119.392h166.752c65.888 0 120.064-53.504 120.064-119.392v-217.856a120.48 120.48 0 0 0-83.072-113.92v-245.504h-68.352z m547.136 88a64.64 64.64 0 1 0 0 129.28 64.64 64.64 0 0 0 0-129.28z m-252.96 30.784v5.568a30.432 30.432 0 0 0-12.352 15.328 50.976 50.976 0 0 0-3.616 14.176V348.608h-48.672a33.6 33.6 0 0 0-23.328 11.104 32.224 32.224 0 0 0-8.608 24 32.96 32.96 0 0 0 31.936 31.968h48.672V737.568c0 6.784 1.824 13.504 6.112 19.072 6.816 9.856 17.216 16 28.352 16h86.176c9.824 0 17.792-4.32 23.968-10.464 6.176-6.176 9.184-15.392 9.184-24.032a33.664 33.664 0 0 0-32.576-32.608H679.36v-289.28h53.6c18.432 0 33.792-15.36 33.792-33.856 0-18.432-15.328-33.856-33.792-33.856H679.36v-288.64h52.992c18.4 0 33.792-15.424 33.792-33.856 0-18.496-15.36-33.856-33.792-33.856h-104.672v0.096z m252.96 325.536a64.64 64.64 0 1 0 0.064 129.344 64.64 64.64 0 0 0-0.064-129.344zM281.184 617.568A138.624 138.624 0 0 0 142.72 756.032 138.656 138.656 0 0 0 281.184 894.496a138.624 138.624 0 0 0 138.432-138.464c-0.576-76.928-62.08-138.464-138.432-138.464z m0 208.576c-38.752 0-70.784-32-70.784-70.752 0-38.784 32-70.784 70.784-70.784s70.784 32 70.784 70.784c0 38.784-32 70.752-70.784 70.752zM880.64 674.176a64.64 64.64 0 1 0 0 129.216 64.64 64.64 0 1 0 0-129.216z"  horiz-adv-x="1024" />

    
    <glyph glyph-name="jiankong4" unicode="&#58912;" d="M989.934 418.902C980.4 677.736 772.664 885.464 513.819 894.997V896h-36.701v-1.003C218.2 885.535 10.393 677.808 0.86 418.902H0v-36.7h0.86c9.533-258.978 217.34-466.777 476.258-476.31v-0.788h17.561c0.287 0 0.502-0.072 0.788-0.072 0.215 0 0.43 0.072 0.645 0.072h17.705v0.788c258.845 9.605 466.652 217.404 476.114 476.31h1.005v36.7h-1.002z m-512.816-477.6c-239.06 9.532-431.385 201.848-440.848 440.9h141.573c9.176-161.28 138.06-290.086 299.275-299.262V-58.7z m0 176.975c-141.429 9.176-254.76 122.501-263.863 263.925h142.433c8.315-63.437 58.135-113.253 121.43-121.568v-142.357z m0 177.694c-43.87 7.67-78.35 42.362-86.02 86.231h86.02v-86.23z m0 122.93h-86.02c7.67 43.797 42.22 78.49 86.02 86.16v-86.16z m0 121.426c-63.296-8.244-113.043-58.06-121.43-121.425H213.255c3.326 51.646 20.58 99.542 48.022 139.989 11.574-7.631 25.424-12.088 40.307-12.088 40.5 0 73.403 32.902 73.403 73.4a72.976 72.976 0 0 1-7.554 32.406c33.31 16.97 70.41 27.545 109.685 30.073v-142.355z m0 177.694c-48.091-2.738-93.295-16.119-133.305-37.821-11.95 8.432-26.512 13.404-42.23 13.404-40.5 0-73.403-32.9-73.403-73.4 0-12.45 3.12-24.176 8.604-34.455-34.062-47.483-55.379-104.75-58.94-166.846H36.27C45.732 657.81 238.13 850.126 477.118 859.661v-141.64z m36.701-35.339c123.542-8.018 225.617-95.535 255.51-211.828-24.512-7.308-43.681-27.08-50.111-51.953H635.18c-8.317 63.293-58.136 113.181-121.36 121.425V682.682h-0.001z m0-177.621c43.726-7.742 78.278-42.434 85.948-86.16h-85.948v86.16z m0-122.859h85.948c-7.67-43.869-42.15-78.561-85.948-86.23v86.23z m0-121.568c63.224 8.315 113.116 58.131 121.36 121.568h84.018c6.413-24.912 25.602-44.714 50.142-52.027-29.877-116.33-131.994-203.878-255.52-211.896V260.634z m0-319.333V82.94c142.842 8.196 260.264 110.344 291.488 245.722 27.356 5.701 49.156 26.65 56.079 53.54h93.138c-9.391-239.052-201.716-431.368-440.705-440.9z m347.545 477.6c-6.942 26.85-28.72 47.766-56.045 53.465-31.205 135.354-148.64 237.521-291.5 245.655V859.658c238.918-9.533 431.242-201.849 440.705-440.757h-93.16z"  horiz-adv-x="1024" />

    
    <glyph glyph-name="zidongpenshuimiehuoqi" unicode="&#58889;" d="M319.30612183 60.80172729000003l69.82443237 224.43832398c7.46356201 23.97271729-3.57852172 49.14926148-24.52642823 55.95529175-20.95367432 6.7986145-44.19799805-7.25592041-51.65908813-31.2352295L243.12060547 85.55639647999999c-7.44708252-23.97271729 3.58676148-49.15090943 24.54290771-55.96765136 20.94131469-6.80767823 44.19140625 7.24850464 51.64260865 31.21215821z m356.09710693 249.1954651l69.85079956-224.41360474c7.47097778-23.97106933-3.56121826-49.17645263-24.50500488-55.98495484-20.94213867-6.82827758-44.1864624 7.21307373-51.64920044 31.17507935l-69.84008789 224.42019653c-7.46685791 23.97518921 3.56369018 49.16079712 24.50500488 55.9890747 20.94213867 6.82415771 44.16915893-7.21472168 51.63848877-31.18579101zM576.22470093 479.88098145l45.71328735 212.80215454c8.88656617 41.36764526-18.41418458 74.83996583-60.9609375 74.83996581H441.10769653c-42.34240723 0-69.84008789-33.50692749-60.9609375-74.83996581l45.71246339-212.80215454h-256.25610352c-22.70544433 0-41.1262207-18.39770508-41.1262207-41.09161377 0-22.85293579 18.4133606-41.09161377 41.1262207-41.09161377h662.93289184c22.70544433 0 41.1262207 18.3968811 41.1262207 41.09161377 0 22.85211182-18.4133606 41.09161377-41.1262207 41.09161376H576.22470093z m-34.1784668-196.64071656l0.08734131-236.75592041c0.02471924-25.29025268-18.44467163-45.99179077-41.0256958-46.00744628-22.58432007 0.0065918-41.06359863 20.69494629-41.07513428 45.98355102l-0.08239746 236.74932861c-0.01483154 25.29107666 18.45373536 46.00085449 41.0421753 46.00085449 22.58349609 0.01977539 41.05700683-20.67517089 41.0545349-45.96954345z"  horiz-adv-x="1024" />

    
    <glyph glyph-name="xiaofangyonghuxinxichuanshuzhuangzhi" unicode="&#58902;" d="M806.906653-41.289098999999965L217.042771-41.289098999999965c-27.054032 0-49.061398 21.758103-49.061398 48.494236L167.981373 753.981683c0 26.739745 22.007366 48.490623 49.061398 48.490623l589.863882 0c27.05042 0 49.061398-21.750878 49.061398-48.490623l0-746.772934C855.964439-19.53099599999996 833.957073-41.289098999999965 806.906653-41.289098999999965zM220.120624 8.198575000000005l583.708178 0L803.828801 752.988245 220.120624 752.988245 220.120624 8.198575000000005zM737.25399 337.673266L286.691822 337.673266c-22.495054 0-39.459366 13.503535-39.459366 31.407098L247.232456 668.069146c0 17.907176 16.964312 31.407098 39.459366 31.407098l450.562168 0c22.495054 0 39.459366-13.503535 39.459366-31.407098l0-298.988781C776.713356 351.17680099999995 759.749044 337.673266 737.25399 337.673266zM291.030438 381.47124799999995l441.884936 0L732.915374 655.681874 291.030438 655.681874 291.030438 381.47124799999995zM278.516729 185.138954m-28.155846 0a7.794 7.794 0 1 1 56.311691 0 7.794 7.794 0 1 1-56.311691 0ZM391.140111 185.138954m-28.155846 0a7.794 7.794 0 1 1 56.311691 0 7.794 7.794 0 1 1-56.311691 0ZM606.795682 213.49348799999996m-18.568264 0a5.14 5.14 0 1 1 37.136527 0 5.14 5.14 0 1 1-37.136527 0ZM665.748113 213.49348799999996m-18.568264 0a5.14 5.14 0 1 1 37.136527 0 5.14 5.14 0 1 1-37.136527 0ZM724.700543 213.49348799999996m-18.568264 0a5.14 5.14 0 1 1 37.136527 0 5.14 5.14 0 1 1-37.136527 0ZM606.795682 154.54105700000002m-18.568264 0a5.14 5.14 0 1 1 37.136527 0 5.14 5.14 0 1 1-37.136527 0ZM665.748113 154.54105700000002m-18.568264 0a5.14 5.14 0 1 1 37.136527 0 5.14 5.14 0 1 1-37.136527 0ZM724.700543 154.54105700000002m-18.568264 0a5.14 5.14 0 1 1 37.136527 0 5.14 5.14 0 1 1-37.136527 0ZM606.795682 95.58862599999998m-18.568264 0a5.14 5.14 0 1 1 37.136527 0 5.14 5.14 0 1 1-37.136527 0ZM665.748113 95.58862599999998m-18.568264 0a5.14 5.14 0 1 1 37.136527 0 5.14 5.14 0 1 1-37.136527 0ZM724.700543 95.58862599999998m-18.568264 0a5.14 5.14 0 1 1 37.136527 0 5.14 5.14 0 1 1-37.136527 0ZM575.717322 584.8587600000001c-26.345982-7.445368-31.17951-28.531546-29.474409-41.941156-18.810301 21.891766-18.040838 47.063684-18.040838 83.325986-60.278219-22.520341-46.261709-87.418952-48.06796-107.132378-15.161674 12.293347-18.033613 41.659381-18.033613 41.659381-16.010612-8.153418-24.037593-29.940422-24.037593-47.601947 0-42.743131 34.987088-77.383419 78.131207-77.383419 43.151344 0 78.138432 34.640288 78.138432 77.383419C594.328935 538.542863 575.475284 550.272659 575.717322 584.8587600000001L575.717322 584.8587600000001zM575.717322 584.8587600000001"  horiz-adv-x="1024" />

    
    <glyph glyph-name="jiankongshouye" unicode="&#59091;" d="M754.5344-4.352H269.056c-20.5824 0-48.5376-48.5376-48.5376-48.5376v-48.5376h582.5024v48.5376c0.0512 21.4016-27.9552 48.5376-48.4864 48.5376zM885.1456 869.4272H138.3936C76.544 869.4272 26.368 817.2032 26.368 752.9472v-543.7952c0-64.3072 50.1248-116.4288 112.0256-116.4288H414.72v-48.4864h194.2016v48.4864h276.2752c61.9008 0 112.0256 52.1728 112.0256 116.4288V752.9472c0 64.256-112.0768 116.48-112.0768 116.48z m9.1136-213.248l-175.872-185.4976a42.24 42.24 0 0 0-62.1056 0l-91.2384 96.1536-147.2-271.8208a43.8784 43.8784 0 0 0-38.144-23.3472c-1.024 0-2.048 0-3.072 0.1024a44.3392 44.3392 0 0 0-37.7856 29.0304L275.712 467.4048 190.976 378.0096a42.3424 42.3424 0 0 0-62.1568 0 48.128 48.128 0 0 0 0 65.4848L260.6592 582.656a42.0352 42.0352 0 0 0 39.8848 12.544 44.3904 44.3904 0 0 0 32-28.0576L386.6112 424.448l130.7136 241.152a43.8272 43.8272 0 0 0 32.3072 22.9376 42.8032 42.8032 0 0 0 36.864-13.1072l100.864-106.3424 144.6912 152.6784a42.3936 42.3936 0 0 0 62.208 0 48.3328 48.3328 0 0 0 0-65.5872z"  horiz-adv-x="1024" />

    
    </font>
</defs>
</svg>
